<svg width="1455" height="1280" viewBox="0 0 1455 1280" fill="none" xmlns="http://www.w3.org/2000/svg">
<path d="M1452.74 860.594C1453.99 629.352 1130.3 440.14 729.761 437.978C329.222 435.815 3.50969 621.52 2.26098 852.762C1.01228 1084 324.701 1273.22 725.239 1275.38C1125.78 1277.54 1451.49 1091.84 1452.74 860.594Z" fill="white"/>
<path d="M1311.94 693.969C1274.14 672.143 1213.04 672.033 1175.47 693.722C1165.71 699.36 1158.56 705.922 1153.9 712.918C1149.54 714.699 1145.34 716.657 1141.45 718.904C1103.88 740.594 1104.07 775.868 1141.88 797.693C1179.68 819.519 1240.78 819.629 1278.34 797.94C1288.1 792.303 1295.26 785.74 1299.92 778.744C1304.27 776.963 1308.47 775.005 1312.37 772.758C1349.93 751.069 1349.74 715.795 1311.94 693.969Z" fill="#BFB5BF"/>
<path d="M1196.12 346.343C1196.12 346.343 1182.23 348.52 1178.24 360.973C1174.25 373.426 1173.49 410.668 1172.16 418.126C1170.84 425.585 1168.19 433.702 1167.6 434.405C1167.01 435.107 1164.7 437.002 1170.69 445.043C1176.68 453.084 1184.52 457.372 1188.23 453.35C1191.94 449.328 1195.74 417.031 1196.3 403.286C1196.87 389.545 1196.12 346.343 1196.12 346.343Z" fill="#FEBFBF"/>
<path d="M1110.83 516.205C1110.83 516.205 1113.49 520.627 1114 520.773C1114.52 520.92 1116.73 523.13 1118.27 522.837C1119.75 522.614 1121.15 520.553 1121.15 520.553C1121.15 520.553 1123.95 523.427 1125.72 523.28C1127.48 523.204 1129.11 521.952 1129.11 521.952C1129.11 521.952 1131.76 522.098 1132.79 521.143C1133.75 520.184 1133.75 520.184 1133.75 520.184C1133.75 520.184 1136.55 519.301 1137.36 517.903C1138.24 516.428 1136.54 511.64 1136.54 511.64C1136.54 511.64 1139.34 505.673 1139.56 503.389C1139.71 502.064 1139.56 500.739 1139.42 499.78C1139.2 499.044 1139.12 498.674 1139.12 498.674C1139.12 498.674 1183.25 462.798 1186.71 455.06C1189.07 449.902 1181.85 443.716 1176.69 440.106C1174.04 438.335 1171.98 437.16 1171.98 437.16C1171.98 437.16 1168.15 435.245 1166.75 435.834C1165.42 436.497 1159.75 440.696 1153.86 450.938C1147.89 461.103 1136.91 472.963 1130.06 481.803C1123.21 490.643 1110.54 507.661 1109.73 509.356C1108.92 511.124 1110.83 516.205 1110.83 516.205Z" fill="#FEBFBF"/>
<path d="M1133.67 495.653C1133.67 495.653 1133.67 495.653 1135.51 496.092C1137.35 496.608 1139.12 498.673 1139.12 498.673C1139.12 498.673 1183.25 462.796 1186.71 455.058C1189.07 449.9 1181.85 443.714 1176.69 440.104C1175.96 448.575 1174.48 456.606 1173.52 460.805C1172.12 467.138 1148.4 488.134 1143.98 492.26C1139.56 496.462 1133.67 495.653 1133.67 495.653Z" fill="url(#paint0_linear_939_2472)"/>
<path d="M1136.55 511.652C1136.55 511.652 1136.42 510.31 1134.93 509.98C1133.43 509.65 1132.63 509.667 1132.63 509.667C1132.63 509.667 1132.14 508.688 1130.45 508.418C1128.76 508.149 1128.1 508.925 1128.1 508.925C1128.1 508.925 1126.26 508.658 1125.25 509.174L1119.5 511.329L1122.8 521.417L1120.05 521.834L1118.33 516.719L1117.52 515.004C1117.52 515.004 1116.33 515.584 1115.9 516.017C1115.47 516.453 1115.15 516.1 1115.15 516.1C1115.15 516.1 1113.64 513.177 1113.77 512.208C1113.9 511.239 1114.63 508.625 1114.63 508.625C1114.63 508.625 1117.38 509.248 1118.36 509.261C1119.35 509.271 1126.69 507.28 1126.69 507.28L1131.2 505.648L1132.83 502.292L1133.3 507.849L1135.05 509.051C1135.05 509.051 1136.9 509.511 1136.55 511.652Z" fill="#FA9698"/>
<path d="M1206.27 335.901C1206.27 335.901 1184.51 333.601 1178.7 356.292C1175.44 369.058 1169.66 404.618 1169.66 404.618C1169.66 404.618 1179.19 414.477 1193.12 414.873C1207.06 415.273 1206.27 335.901 1206.27 335.901Z" fill="#279F9E"/>
<path d="M1186.88 740.608C1186.88 740.608 1175.18 745.978 1172.9 747.916C1170.62 749.854 1156.11 762.004 1155.14 763.885C1154.17 765.766 1149.63 769.555 1149.57 773.731C1149.52 777.906 1154.62 781.838 1158.91 781.725C1163.21 781.615 1176.88 777.23 1182.25 771.813C1187.63 766.399 1190.88 762.577 1191.86 762.277C1192.84 761.977 1192.93 762.55 1195.37 762.963C1197.81 763.376 1207.7 758.814 1208.89 756.134C1210.09 753.453 1212.6 742.439 1211.09 739.303C1209.58 736.166 1186.88 740.608 1186.88 740.608Z" fill="#5C6467"/>
<path d="M1185.28 737.168C1185.28 737.168 1174.39 748.252 1173.4 750.782C1172.42 753.313 1177.31 755.72 1184.14 756.036C1190.97 756.353 1199.43 749.201 1199.43 749.201C1199.43 749.201 1206.74 738.746 1203.53 733.368C1200.32 727.991 1185.28 737.168 1185.28 737.168Z" fill="#FEBFBF"/>
<path d="M1171.39 567.04C1172.64 606.526 1171.83 617.724 1172.71 629.661C1173.52 641.521 1180.08 735.083 1180.16 739.795C1180.23 744.436 1190.25 747.086 1196.51 746.72H1196.73C1203.07 746.351 1208.66 740.68 1208.81 737.437C1208.96 734.271 1216.11 654.929 1211.02 628.409C1209.55 620.671 1224.73 567.703 1224.73 567.703C1224.73 567.703 1224.87 566.008 1225.17 563.284C1226.2 552.603 1228.34 525.786 1225.54 519.01C1222 510.463 1176.47 517.905 1176.47 517.905C1176.47 517.905 1170.14 527.481 1171.39 567.04Z" fill="#7282B5"/>
<path d="M1196.51 746.72H1196.73C1203.07 746.351 1208.66 740.68 1208.81 737.437C1208.96 734.271 1216.11 654.929 1211.02 628.409C1209.55 620.671 1224.73 567.703 1224.73 567.703C1224.73 567.703 1224.87 566.008 1225.17 563.285L1202.6 558.19C1202.6 558.19 1206.72 565.556 1202.3 579.996C1197.81 594.363 1205.42 623.841 1204.84 628.116C1204.25 632.388 1209.77 634.009 1208.22 665.907C1206.97 691.985 1207.56 731.547 1196.51 746.72Z" fill="#E8D0C8"/>
<path d="M1275.35 714.864C1275.35 714.864 1267.49 726.182 1266.52 728.066C1265.55 729.947 1254.46 748.254 1254.05 750.694C1253.63 753.135 1254.21 755.249 1255.96 757.001C1257.71 758.752 1264.46 761.192 1269.13 759.937C1273.8 758.682 1281.08 754.703 1284.92 750.701C1288.76 746.699 1293.24 735.554 1293.24 735.554C1293.24 735.554 1297.93 730.304 1299.21 727.73C1300.49 725.156 1303.66 721.786 1304 718.124C1304.34 714.461 1304.73 712.111 1301.3 709.3C1297.87 706.487 1275.35 714.864 1275.35 714.864Z" fill="#5C6467"/>
<path d="M1275.01 712.142C1275.01 712.142 1271.04 723.879 1270.93 726.183C1270.82 728.49 1276.51 731.048 1281.78 730.265C1287.06 729.483 1289.06 724.542 1290.62 723.023C1292.17 721.508 1298.27 710.957 1296.64 707.424C1295 703.898 1275.01 712.142 1275.01 712.142Z" fill="#FEBFBF"/>
<path d="M1196 548.477C1195.63 555.106 1201 563.064 1201 563.064L1213.31 578.903C1213.31 578.903 1220.89 585.902 1232.53 643.438C1241.96 661.854 1271.8 715.415 1271.8 715.415C1271.8 715.415 1280.42 724.255 1290.44 719.394C1294.57 717.402 1297.51 714.825 1299.35 712.468C1301.49 709.814 1302.45 707.53 1302.37 706.794C1302.23 702.889 1282.92 655.005 1280.34 648.08C1277.84 641.227 1267.97 624.356 1267.97 624.356C1267.97 624.356 1267.89 598.794 1268.7 590.247C1270.11 574.628 1283.66 535.808 1279.02 528.07C1278.36 526.965 1276.15 526.082 1272.76 525.416C1253.53 521.511 1197.76 524.754 1197.76 524.754C1197.76 524.754 1196.36 541.848 1196 548.477Z" fill="#7282B5"/>
<path d="M1298.47 712.724L1300.24 712.205C1285.61 662.11 1274.52 647.613 1267.88 638.953C1265.67 636.069 1264.08 633.985 1263.12 631.488C1254.74 609.692 1265.47 570.249 1267.71 562.568C1272.93 544.605 1270.6 532.688 1270.49 532.188L1268.69 532.555C1268.71 532.675 1271.02 544.561 1265.94 562.052C1263.68 569.837 1252.82 609.799 1261.41 632.15C1262.46 634.894 1264.13 637.065 1266.43 640.072C1272.97 648.632 1283.93 662.956 1298.47 712.724Z" fill="#A0ABCD"/>
<path d="M1263.92 628.26C1273.35 638.206 1282.11 662.146 1288.81 678.724C1294.34 692.426 1298.91 702.594 1299.35 712.467C1301.49 709.813 1302.44 707.529 1302.37 706.793C1302.22 702.887 1282.92 655.004 1280.34 648.078C1277.84 641.226 1267.96 624.355 1267.96 624.355C1267.96 624.355 1267.89 598.793 1268.7 590.246C1270.1 574.627 1283.65 535.807 1279.02 528.069C1278.35 526.963 1276.14 526.081 1272.75 525.415C1272.75 525.638 1272.68 525.858 1272.68 526.078C1272.68 526.078 1276.07 527.699 1270.91 550.021C1265.76 572.343 1259.13 608.959 1263.92 628.26Z" fill="#E8D0C8"/>
<path d="M1173.53 521.587C1176.55 525.489 1195.78 534.919 1219.35 539.34C1226.71 540.739 1234.45 541.621 1242.33 541.698H1242.41C1246.24 541.698 1250.07 541.551 1253.9 541.182C1262.96 540.296 1270.47 536.467 1275.63 533.004C1280.49 529.691 1283.29 526.741 1283.29 526.741C1283.29 526.741 1270.18 488.141 1280.79 444.306C1281.97 439.372 1283.07 434.804 1283.95 430.605C1291.32 397.455 1290.44 385.592 1286.09 373.658C1281.97 362.164 1262.44 354.649 1252.43 346.475C1242.41 338.371 1231.87 338.884 1224.8 339.696C1217.73 340.509 1198.21 331.961 1187.52 346.329C1182.22 353.474 1176.7 385.518 1177.88 403.345C1179.05 421.175 1177.95 448.505 1177.95 466.112C1177.95 483.719 1173.53 521.587 1173.53 521.587Z" fill="#279F9E"/>
<path d="M1213.46 548.622C1213.46 548.622 1237.84 543.315 1242.33 541.696H1242.41C1246.9 539.925 1248.52 531.381 1257.95 525.415C1267.45 519.448 1269.96 514.88 1269.96 514.88C1269.96 514.88 1274.16 522.025 1275.63 533.003C1280.49 529.69 1283.29 526.74 1283.29 526.74C1283.29 526.74 1270.18 488.139 1280.79 444.305C1281.97 439.37 1283.07 434.802 1283.96 430.603C1275.56 414.984 1265.76 403.344 1255.15 403.197C1255.15 403.197 1255.08 421.873 1258.77 443.679C1262.45 465.485 1259.79 475.91 1259.79 475.91L1219.35 539.339L1213.46 548.622Z" fill="#DEDEDE"/>
<path d="M1208.81 348.756C1208.89 355.975 1208.44 358.702 1209.85 360.913C1211.25 363.05 1221.93 365.038 1227.38 363.05C1229.37 362.315 1231.21 361.575 1232.83 360.766C1241.96 356.198 1246.24 350.748 1247.27 348.61C1248.52 346.106 1247.05 344.118 1247.05 344.118C1247.05 344.118 1241.6 339.327 1240.35 326.658C1240.27 325.702 1240.79 310.526 1241.01 305.222C1241.08 304.043 1241.08 303.38 1241.08 303.38C1241.08 303.38 1236.37 294.024 1231.95 294.54C1229.59 294.833 1222.59 301.316 1216.63 307.286C1211.47 312.37 1207.05 317.012 1207.05 317.012C1207.05 317.012 1208.45 336.976 1208.74 346.186C1208.81 347.211 1208.81 348.024 1208.81 348.756Z" fill="#FFADB7"/>
<path d="M1207.05 317.006C1207.05 317.006 1208.44 336.971 1208.74 346.18C1209.7 346.547 1211.1 346.623 1212.94 346.327C1220.9 345.075 1228.63 337.044 1232.24 339.401C1235.85 341.612 1239.02 353.252 1232.83 360.767C1241.96 356.199 1246.24 350.749 1247.27 348.611C1248.52 346.107 1247.05 344.119 1247.05 344.119C1247.05 344.119 1241.6 339.328 1240.35 326.659C1240.27 325.703 1240.79 310.527 1241.01 305.223C1231.51 306.694 1223.25 306.917 1216.63 307.287C1211.46 312.365 1207.05 317.006 1207.05 317.006Z" fill="url(#paint1_linear_939_2472)"/>
<path d="M1236.53 302.769C1236.53 302.769 1235.53 325.198 1233.33 329.942C1231.13 334.687 1215.31 346.89 1200.04 344.776C1195.95 342.595 1189.65 331.304 1188.93 321.322C1188.21 311.343 1189.02 307.667 1188.79 306.792C1188.57 305.916 1185.51 299.819 1185.98 297.016C1186.46 294.212 1187.26 278.446 1192.7 271.554C1198.15 264.662 1213.18 260.417 1226.68 265.857C1240.17 271.298 1236.53 302.769 1236.53 302.769Z" fill="#FEBFBF"/>
<path d="M1231.75 310.701C1231.75 310.701 1230.45 301.834 1236.02 300.266C1241.59 298.694 1239.52 311.154 1239.52 311.154L1240.19 324.446L1240.38 326.687C1240.38 326.687 1245.77 315.209 1247.66 311.713C1249.55 308.22 1250.44 306.789 1251.19 302.92C1251.94 299.047 1254.93 282.443 1254.15 276.636C1253.36 270.832 1243.4 262.079 1235.79 261.446C1232.3 256.764 1225.16 254.444 1218.29 254.397C1211.42 254.35 1206.31 254.883 1198.06 261.299C1189.82 267.719 1189.52 272.787 1188.88 274.355C1188.25 275.92 1188.2 282.356 1188.2 282.356L1189.11 279.013C1189.11 279.013 1192.38 281.174 1202.57 280.292C1212.76 279.409 1218.38 275.337 1218.38 275.337C1218.38 275.337 1216.51 282.552 1216.89 285.223C1217.28 287.893 1218.86 296.157 1218.86 296.157C1218.86 296.157 1224.09 299.274 1225.84 300.499C1227.59 301.724 1228.41 304.558 1228.41 304.558L1229.07 311.643L1231.75 310.701Z" fill="#754554"/>
<path d="M1234.73 305.995C1234.73 305.995 1237.74 298.044 1243.83 301.117C1249.91 304.191 1241.18 320.06 1237.24 320.276C1233.3 320.493 1234.03 316.434 1234.03 316.434C1234.03 316.434 1238.27 309.758 1234.73 305.995Z" fill="url(#paint2_linear_939_2472)"/>
<path d="M1199.15 825.376L1085.94 760.016L1040.24 786.403L1065.3 800.873L933.907 876.739L1017.39 924.942L1148.79 849.08L1153.45 851.763L1199.15 825.376Z" fill="#BFB5BF"/>
<path d="M1220.85 547.408L1188.54 557.58L1192.05 568.222L1224.32 558.083L1220.85 547.408Z" fill="#5C6467"/>
<path d="M1290 475.208C1288.5 482.856 1285.02 489.442 1276.75 499.294C1268.53 509.103 1234.02 534.821 1231.47 542.096C1228.91 549.418 1230.49 557.786 1229.14 560.612C1227.85 563.436 1225.11 567.968 1223.35 568.92C1223.04 569.073 1222.69 569.226 1222.24 569.339C1220.19 569.989 1217.27 570.325 1217.27 570.325L1212.83 570.019L1204.43 571.004C1204.43 571.004 1200.3 570.678 1199.96 569.389C1199.62 568.141 1199.78 565.92 1199.78 565.92C1199.78 565.92 1198.4 567.165 1196.95 567.968L1196.9 568.014C1196.12 568.507 1195.23 568.827 1194.59 568.677C1192.81 568.231 1193.43 565.53 1194.3 563.269C1195.18 561.009 1197.94 550.783 1199.17 549.408C1200.37 548.08 1218.19 535.57 1222.67 528.735C1227.19 521.852 1265.26 473.037 1265.26 473.037C1265.26 473.037 1268.81 462.425 1266.25 455.506C1263.7 448.587 1243.41 380.08 1271.02 368.533C1280.64 367.028 1287.44 374.223 1289.68 393.422C1291.93 412.664 1291.55 467.566 1290 475.208Z" fill="#FEBFBF"/>
<path d="M1222.24 569.341C1220.19 569.99 1217.27 570.327 1217.27 570.327L1212.83 570.02L1204.43 571.006C1204.43 571.006 1200.3 570.68 1199.96 569.391C1199.62 568.142 1199.78 565.922 1199.78 565.922C1199.78 565.922 1198.4 567.167 1196.95 567.969C1198.23 566.544 1199.32 564.953 1199.32 564.953C1199.32 564.953 1199.96 561.71 1200.93 560.438C1201.91 559.166 1205.38 555.683 1205.38 555.683C1206.46 555.626 1207.78 561.66 1207.78 561.66L1206.9 565.639L1203.08 564.303C1203.08 564.303 1202.78 562.149 1203.14 561.317C1203.55 560.481 1205.8 557.697 1205.8 557.697L1201.86 559.985C1201.86 559.985 1200.85 562.252 1200.33 563.591C1199.86 564.973 1200.74 569.627 1200.74 569.627C1200.74 569.627 1201.72 570.164 1204.55 569.877C1207.33 569.594 1213.85 568.076 1213.85 568.076L1215.2 568.772L1219.73 569.028L1222.24 569.341Z" fill="#FA9698"/>
<path d="M1205.68 555.826L1201.52 559.728C1201.52 559.728 1200.3 563.261 1200.25 564.007C1200.2 564.753 1200.22 565.652 1200.22 565.652L1207.18 563.464L1207.45 561.696C1207.45 561.696 1207.18 556.705 1205.68 555.826Z" fill="#5C6467"/>
<path d="M1143.98 511.45L1111.19 521.273L1108.39 510.448L1140.45 500.806L1143.98 511.45Z" fill="#5C6467"/>
<path d="M1138.7 503.062C1138.14 505.526 1139.2 508.918 1141.07 510.643C1142.93 512.368 1144.9 511.769 1145.45 509.305C1146.01 506.841 1144.95 503.448 1143.08 501.723C1141.22 499.998 1139.25 500.598 1138.7 503.062Z" fill="#5C6467"/>
<path d="M1107.18 507.328L1110.08 506.436C1110.11 506.426 1110.15 506.416 1110.18 506.406L1110.34 506.359L1110.35 506.386C1111.57 506.113 1113 506.556 1114.4 507.847C1117.36 510.588 1119.05 515.982 1118.16 519.897C1117.73 521.829 1116.75 523.031 1115.51 523.43V523.437L1115.46 523.45L1115.45 523.453L1112.56 524.352L1112.03 522.664C1111.75 522.471 1111.47 522.278 1111.19 522.022C1108.23 519.281 1106.54 513.887 1107.42 509.972C1107.5 509.632 1107.61 509.342 1107.72 509.046L1107.18 507.328Z" fill="#3B4549"/>
<path d="M1104.44 510.896C1103.55 514.812 1105.24 520.206 1108.21 522.946C1111.18 525.686 1114.3 524.734 1115.18 520.818C1116.07 516.903 1114.38 511.509 1111.41 508.768C1108.45 506.031 1105.33 506.984 1104.44 510.896Z" fill="#5C6467"/>
<path d="M1106.43 512.736C1105.88 515.2 1106.94 518.593 1108.81 520.318C1110.67 522.042 1112.63 521.443 1113.19 518.979C1113.75 516.515 1112.68 513.122 1110.82 511.398C1108.96 509.676 1106.99 510.275 1106.43 512.736Z" fill="#FFC536"/>
<path d="M1187.66 554.376L1190.55 553.444C1190.58 553.434 1190.61 553.42 1190.65 553.41L1190.8 553.36L1190.82 553.384C1192.03 553.094 1193.46 553.52 1194.88 554.792C1197.88 557.492 1199.64 562.863 1198.81 566.792C1198.4 568.727 1197.43 569.942 1196.2 570.362V570.368L1196.16 570.381L1196.14 570.385L1193.27 571.32L1192.71 569.639C1192.43 569.449 1192.15 569.263 1191.87 569.006C1188.86 566.306 1187.1 560.935 1187.94 557.01C1188.01 556.667 1188.12 556.377 1188.23 556.081L1187.66 554.376Z" fill="#3B4549"/>
<path d="M1184.96 557.977C1184.13 561.903 1185.89 567.274 1188.89 569.974C1191.9 572.674 1195 571.682 1195.84 567.756C1196.67 563.831 1194.91 558.46 1191.91 555.76C1188.91 553.059 1185.8 554.052 1184.96 557.977Z" fill="#5C6467"/>
<path d="M1186.98 559.791C1186.46 562.262 1187.56 565.641 1189.45 567.339C1191.34 569.037 1193.3 568.411 1193.82 565.944C1194.34 563.474 1193.24 560.094 1191.35 558.396C1189.46 556.698 1187.5 557.32 1186.98 559.791Z" fill="#FFC536"/>
<path d="M1091.81 734.196C1091.81 748.284 1081.86 765.452 1069.58 772.54C1057.3 779.629 1047.35 773.956 1047.35 759.865C1047.35 745.777 1057.3 728.609 1069.58 721.521C1081.86 714.432 1091.81 720.109 1091.81 734.196Z" fill="#3B4549"/>
<path d="M1084.5 719.505L1094.98 725.511L1062.86 779.315L1052.68 773.355L1061.44 736.862L1084.5 719.505Z" fill="#3B4549"/>
<path d="M1101.31 739.679C1101.31 753.767 1091.36 770.935 1079.08 778.023C1066.8 785.112 1056.85 779.438 1056.85 765.347C1056.85 751.26 1066.8 734.092 1079.08 727.003C1091.36 719.918 1101.31 725.592 1101.31 739.679Z" fill="#5C6467"/>
<path d="M1093.07 744.443C1093.07 753.307 1086.81 764.105 1079.08 768.563C1071.36 773.022 1065.1 769.452 1065.1 760.589C1065.1 751.725 1071.36 740.927 1079.08 736.469C1086.8 732.011 1093.07 735.58 1093.07 744.443Z" fill="#FFC536"/>
<path d="M1045.32 786.68L1082.2 750.397L1079.08 748.596L1045.32 757.336V786.68Z" fill="#FFF98B"/>
<path d="M1048.44 788.479L1082.2 758.236V750.398L1048.44 759.139V788.479Z" fill="#FFE25B"/>
<path d="M936.71 792.444L1022.06 841.719V846.135L936.71 796.859V792.444Z" fill="#FFC536"/>
<path d="M1048.5 785.549L1071.62 559.335C1073.17 541.162 1077.27 536.853 1083.85 531.909C1089.47 526.987 1097.38 523.431 1103 521.69L1110.5 519.356L1108.61 513.263L1101.1 515.597C1098.08 516.536 1087.61 520.128 1079.82 526.961C1071.31 533.357 1066.88 539.803 1065.27 558.742L1042.15 784.9L1048.5 785.549Z" fill="#FFC536"/>
<path d="M1053.06 700.734C1052.83 700.584 1052.68 700.297 1052.68 699.881C1052.68 699.009 1053.3 697.95 1054.06 697.511C1054.43 697.297 1054.76 697.277 1055.01 697.407L1055.01 697.401L1055.03 697.411L1055.04 697.414L1140.93 746.985L1139.14 750.398L1053.09 700.764L1053.09 700.76L1053.06 700.744L1053.06 700.734Z" fill="#DD9A36"/>
<path d="M1063.22 616.25C1062.99 616.1 1062.85 615.814 1062.85 615.398C1062.85 614.525 1063.46 613.467 1064.22 613.027C1064.59 612.814 1064.92 612.794 1065.17 612.924L1065.17 612.917L1065.19 612.927L1065.2 612.931L1151.09 662.502L1149.31 665.915L1063.26 616.28L1063.25 616.277L1063.22 616.257V616.25Z" fill="#DD9A36"/>
<path d="M1077.46 754.121C1077.07 753.865 1076.82 753.376 1076.82 752.67C1076.82 751.188 1077.87 749.38 1079.16 748.634C1079.79 748.271 1080.35 748.238 1080.77 748.458L1080.78 748.448L1080.81 748.468L1080.82 748.474L1158.65 793.418L1155.61 799.231L1077.51 754.181L1077.5 754.175L1077.45 754.148L1077.46 754.121Z" fill="#DD9A36"/>
<path d="M1127.55 834.153L1161.31 803.91V796.072L1127.55 804.813V834.153Z" fill="#FFF98B"/>
<path d="M1022.06 841.72L1130.66 831.542L1045.32 782.267L936.71 792.445L1022.06 841.72Z" fill="#FFE25B"/>
<path d="M1133.36 806.463L1130.66 831.541L1045.32 782.266L1048.02 757.188L1133.36 806.463Z" fill="#DD9A36"/>
<path d="M1130.66 835.958L1164.43 805.712V797.874L1130.66 806.618V835.958Z" fill="#FFE25B"/>
<path d="M1022.06 841.719L1130.66 831.54V835.955L1022.06 846.134V841.719Z" fill="#FFC536"/>
<path d="M1133.84 834.822L1156.96 608.61L1158.09 600.689C1159.9 587.577 1160.33 584.461 1165.28 579.576C1168.62 575.054 1175.13 571.265 1184.46 568.239L1191.93 565.805L1189.96 559.731L1182.49 562.165C1171.72 565.665 1164.31 570.13 1160.45 575.427C1154.31 581.441 1153.68 586.072 1151.77 599.813L1150.63 607.821L1127.49 834.176L1133.84 834.822Z" fill="#FFC536"/>
<path d="M1186.66 789.084C1186.66 803.171 1176.71 820.339 1164.43 827.428C1152.15 834.517 1142.19 828.843 1142.19 814.752C1142.19 800.664 1152.15 783.497 1164.43 776.408C1176.71 769.319 1186.66 774.993 1186.66 789.084Z" fill="#3B4549"/>
<path d="M1148.14 828.682L1158.17 834.496L1169.01 811.178L1190.44 780.792L1179.74 774.586L1148.14 828.682Z" fill="#3B4549"/>
<path d="M1196.16 794.567C1196.16 808.655 1186.21 825.822 1173.93 832.911C1161.65 840 1151.7 834.326 1151.7 820.235C1151.7 806.147 1161.65 788.98 1173.93 781.891C1186.21 774.806 1196.16 780.479 1196.16 794.567Z" fill="#5C6467"/>
<path d="M1187.91 799.332C1187.91 808.195 1181.65 818.993 1173.93 823.451C1166.2 827.91 1159.95 824.34 1159.95 815.477C1159.95 806.613 1166.2 795.815 1173.93 791.357C1181.65 786.899 1187.91 790.471 1187.91 799.332Z" fill="#FFC536"/>
<path d="M1177.35 805.432C1177.35 807.596 1175.82 810.234 1173.93 811.322C1172.04 812.411 1170.51 811.539 1170.51 809.375C1170.51 807.21 1172.04 804.573 1173.93 803.484C1175.82 802.396 1177.35 803.268 1177.35 805.432Z" fill="#5C6467"/>
<path d="M1038.73 836.893L964.416 793.991L971.731 713.856L1046.04 756.759L1038.73 836.893Z" fill="#C99A6B"/>
<path d="M1038.73 836.892L1120.55 829.111L1127.86 748.977L1046.04 756.758L1038.73 836.892Z" fill="#AE835B"/>
<path d="M1046.04 756.759L1127.86 748.977L1053.55 706.075L971.731 713.856L1046.04 756.759Z" fill="#87623F"/>
<path d="M1008.81 775.559L993.537 766.746L998.308 729.204L1013.58 738.018L1008.81 775.559Z" fill="#D9AF84"/>
<path d="M1013.58 738.017L1095.39 730.236L1080.12 721.419L998.308 729.204L1013.58 738.017Z" fill="#EBCBAB"/>
<path d="M1006.51 733.937L1088.32 726.156L1087.47 725.656L1005.65 733.441L1006.51 733.937Z" fill="#D1A986"/>
<path d="M1127.86 748.977L1046.04 756.758L1078.87 756.052L1127.86 748.977Z" fill="#87623F"/>
<path d="M1046.23 754.856L971.921 711.95L979.233 631.819L1053.54 674.722L1046.23 754.856Z" fill="#C99A6B"/>
<path d="M1046.23 754.855L1128.05 747.07L1135.36 666.939L1053.54 674.721L1046.23 754.855Z" fill="#AE835B"/>
<path d="M1053.54 674.722L1135.36 666.941L1061.05 624.035L979.233 631.82L1053.54 674.722Z" fill="#E8B687"/>
<path d="M1016.31 693.522L1001.04 684.706L1005.81 647.164L1021.08 655.981L1016.31 693.522Z" fill="#D9AF84"/>
<path d="M1021.08 655.981L1102.9 648.196L1087.63 639.383L1005.81 647.164L1021.08 655.981Z" fill="#EBCBAB"/>
<path d="M1014.01 651.898L1095.83 644.116L1094.97 643.62L1013.15 651.401L1014.01 651.898Z" fill="#D1A986"/>
<path d="M1135.36 666.939L1053.54 674.721L1086.37 674.012L1135.36 666.939Z" fill="#87623F"/>
<path d="M1272.86 434.387C1267.18 435.196 1259.63 436.428 1259.63 436.428C1259.63 436.428 1254.74 416.616 1255.1 405.495C1255.47 394.374 1254.96 374.683 1269.64 368.117C1284.33 361.551 1289.22 383.983 1289.72 388.295C1290.22 392.606 1292.71 430.751 1292.71 430.751C1292.71 430.751 1285.46 432.592 1272.86 434.387Z" fill="#279F9E"/>
<path d="M1127.22 522.958C1127.22 522.958 1129.84 521.01 1128.49 519.159C1127.14 517.308 1125.07 513.942 1125.07 513.942L1125.3 507.742C1125.3 507.742 1131.03 506.427 1132.05 501.692C1133.07 496.957 1129.03 491.716 1126.42 492.346C1123.8 492.975 1116.02 503.819 1115.61 504.565C1115.2 505.311 1118.86 515.56 1118.86 515.56C1118.86 515.56 1121.85 520.348 1122.54 521.124C1123.24 521.899 1125.03 524.473 1127.22 522.958Z" fill="#FEC7C6"/>
<path d="M1186.71 280.463L1188.19 282.378C1188.19 282.378 1215.15 290.262 1217.88 290.998C1219.06 291.295 1221.04 292.104 1223.84 292.986C1227.6 294.315 1232.9 295.713 1239.98 296.302C1252.21 297.331 1252.21 297.331 1252.21 297.331C1252.21 297.331 1256.11 285.544 1254.27 274.79C1252.87 266.612 1243.66 259.393 1232.75 255.857C1232.68 255.784 1232.61 255.784 1232.61 255.784C1229.22 254.679 1225.68 253.87 1222.22 253.5C1207.34 251.952 1197.17 258.215 1192.39 265.437C1187.67 272.655 1186.71 280.463 1186.71 280.463Z" fill="#279F9E"/>
<path d="M1223.84 292.986C1227.6 294.315 1232.9 295.713 1239.97 296.302C1252.2 297.331 1252.2 297.331 1252.2 297.331C1252.2 297.331 1256.1 285.544 1254.26 274.79C1252.86 266.612 1243.66 259.393 1232.75 255.857C1233.93 256.447 1243.66 261.308 1243.58 270.518C1243.44 279.801 1237.69 290.925 1223.84 292.986Z" fill="#FCF5E8"/>
<path d="M1224.2 293.168C1224.2 293.168 1202.72 311.647 1195.33 304.199C1190.12 298.951 1177.2 293.94 1171.52 295.628C1165.84 297.316 1165.84 297.316 1165.84 297.316C1165.84 297.316 1164.63 297.073 1164.79 295.692C1164.94 294.31 1186.73 280.499 1186.73 280.499C1186.73 280.499 1195.37 271.305 1224.2 293.168Z" fill="#725E6D"/>
<path d="M1048.62 762.25L1048.67 761.69L1069.25 759.609L1067.33 782.234L1067.28 782.794L1046.71 784.875L1048.62 762.25ZM1067.77 761.121L1049.92 762.922L1048.19 783.366L1066.03 781.565L1067.77 761.121Z" fill="#87623F"/>
<path d="M1055.31 780.472L1059.84 779.975L1060.58 768.538L1056.04 769.034L1055.31 780.472Z" fill="#87623F"/>
<path d="M1051.74 773.898L1064.72 772.416L1058.24 764.019L1051.74 773.898Z" fill="#87623F"/>
<path d="M1056.47 680.602L1056.52 680.045L1077.1 677.968L1075.19 700.589L1075.14 701.145L1054.57 703.23L1056.47 680.602ZM1075.62 679.473L1057.78 681.271L1056.05 701.715L1073.89 699.913L1075.62 679.473Z" fill="#87623F"/>
<path d="M1063.16 698.825L1067.7 698.329L1068.43 686.892L1063.9 687.388L1063.16 698.825Z" fill="#87623F"/>
<path d="M1059.59 692.247L1072.57 690.765L1066.09 682.368L1059.59 692.247Z" fill="#87623F"/>
<path d="M569.606 815.501L417.519 727.706L843.105 481.753L995.189 569.549L569.606 815.501Z" fill="#BECDD4"/>
<path d="M859.713 43.6963V234.993L848.089 241.709V50.4121L859.713 43.6963Z" fill="#FFC536"/>
<path d="M848.089 50.4113V241.708L838.67 236.268V44.9707L848.089 50.4113Z" fill="#DD9A36"/>
<path d="M848.102 50.4192L838.67 44.9753L850.297 38.2461L859.729 43.6867L848.102 50.4192Z" fill="#FFE25B"/>
<path d="M970.912 107.916V299.213L959.285 305.929V114.632L970.912 107.916Z" fill="#FFC536"/>
<path d="M959.285 114.631V305.928L949.869 300.487V109.19L959.285 114.631Z" fill="#DD9A36"/>
<path d="M959.302 114.639L949.869 109.195L961.496 102.466L970.929 107.906L959.302 114.639Z" fill="#FFE25B"/>
<path d="M970.929 96.2617V107.905L959.302 114.621V102.978L970.929 96.2617Z" fill="#FFC536"/>
<path d="M959.302 102.976V114.62L838.67 44.9738V33.3301L959.302 102.976Z" fill="#DD9A36"/>
<path d="M959.319 102.984L838.67 33.3346L850.297 26.6055L970.946 96.2546L959.319 102.984Z" fill="#FFE25B"/>
<path d="M859.713 449.615V511.027L848.089 517.743V456.331L859.713 449.615Z" fill="#FFC536"/>
<path d="M848.089 456.33V517.742L838.669 512.301V450.89L848.089 456.33Z" fill="#DD9A36"/>
<path d="M848.102 456.338L838.669 450.894L850.296 444.165L859.729 449.609L848.102 456.338Z" fill="#FFE25B"/>
<path d="M970.912 513.835V575.247L959.285 581.962V520.551L970.912 513.835Z" fill="#FFC536"/>
<path d="M959.285 520.55V581.962L949.869 576.521V515.109L959.285 520.55Z" fill="#DD9A36"/>
<path d="M959.302 520.558L949.869 515.114L961.496 508.385L970.929 513.829L959.302 520.558Z" fill="#FFE25B"/>
<path d="M970.929 502.184V513.827L959.302 520.54V508.899L970.929 502.184Z" fill="#FFC536"/>
<path d="M959.302 508.899V520.539L838.669 450.894V439.25L959.302 508.899Z" fill="#DD9A36"/>
<path d="M959.318 508.904L838.669 439.255L850.296 432.525L970.945 502.174L959.318 508.904Z" fill="#FFE25B"/>
<path d="M959.319 508.9V520.547L576.521 741.758V730.114L959.319 508.9Z" fill="#FFC536"/>
<path d="M576.521 730.116V741.76L455.886 672.11V660.467L576.521 730.116Z" fill="#DD9A36"/>
<path d="M576.538 730.121L455.889 660.469L838.686 439.245L959.335 508.894L576.538 730.121Z" fill="#FFE25B"/>
<path d="M465.292 677.556V738.967L453.665 745.683V684.272L465.292 677.556Z" fill="#FFC536"/>
<path d="M453.665 684.271V745.682L444.245 740.242V678.83L453.665 684.271Z" fill="#DD9A36"/>
<path d="M453.678 684.279L444.245 678.835L455.872 672.105L465.305 677.549L453.678 684.279Z" fill="#FFE25B"/>
<path d="M576.488 741.772V803.184L564.864 809.9V748.488L576.488 741.772Z" fill="#FFC536"/>
<path d="M564.864 748.487V809.899L555.445 804.458V743.047L564.864 748.487Z" fill="#DD9A36"/>
<path d="M564.878 748.495L555.445 743.051L567.072 736.322L576.505 741.766L564.878 748.495Z" fill="#FFE25B"/>
<path d="M576.505 730.123V741.767L564.881 748.479V736.836L576.505 730.123Z" fill="#FFC536"/>
<path d="M564.881 736.834V748.478L444.245 678.832V667.188L564.881 736.834Z" fill="#DD9A36"/>
<path d="M564.894 736.842L444.245 667.193L455.873 660.464L576.521 730.113L564.894 736.842Z" fill="#FFE25B"/>
<path d="M859.713 246.657V437.954L848.089 444.67V253.373L859.713 246.657Z" fill="#FFC536"/>
<path d="M848.089 253.371V444.668L838.669 439.228V247.931L848.089 253.371Z" fill="#DD9A36"/>
<path d="M848.102 253.377L838.669 247.937L850.296 241.204L859.729 246.648L848.102 253.377Z" fill="#FFE25B"/>
<path d="M970.912 310.877V502.174L959.285 508.89V317.593L970.912 310.877Z" fill="#FFC536"/>
<path d="M959.285 317.592V508.889L949.869 503.448V312.151L959.285 317.592Z" fill="#DD9A36"/>
<path d="M959.302 317.596L949.869 312.155L961.496 305.423L970.929 310.867L959.302 317.596Z" fill="#FFE25B"/>
<path d="M970.929 299.223V310.866L959.302 317.582V305.939L970.929 299.223Z" fill="#FFC536"/>
<path d="M959.302 305.938V317.582L838.669 247.936V236.289L959.302 305.938Z" fill="#DD9A36"/>
<path d="M959.318 305.946L838.669 236.294L850.296 229.564L970.945 299.214L959.318 305.946Z" fill="#FFE25B"/>
<path d="M834.241 547.496L761.109 505.273L834.241 463.05L858.524 547.496H834.241Z" fill="#BECDD4"/>
<path d="M858.524 547.495L931.656 505.272V452.824L858.524 495.047V547.495Z" fill="#C99A6B"/>
<path d="M858.524 547.495L785.392 505.272V452.824L858.524 495.047V547.495Z" fill="#AE835B"/>
<path d="M858.524 495.048L785.392 452.826L858.524 410.603L931.656 452.826L858.524 495.048Z" fill="#E8B687"/>
<path d="M827.112 510.064L815.362 503.282V470.129L827.112 476.911V510.064Z" fill="#9C754E"/>
<path d="M827.112 476.913L900.244 434.69L888.494 427.907L815.362 470.13L827.112 476.913Z" fill="#54493E"/>
<path d="M785.392 452.824L858.524 495.047L819.065 473.937L785.392 452.824Z" fill="#87623F"/>
<path d="M821.679 473.777L894.81 431.554L894.001 431.088L820.869 473.311L821.679 473.777Z" fill="#D1A986"/>
<path d="M739.097 602.431L665.965 560.208L739.097 517.985L763.38 602.431H739.097Z" fill="#BECDD4"/>
<path d="M763.38 602.43L836.515 560.207V507.759L763.38 549.982V602.43Z" fill="#C99A6B"/>
<path d="M763.38 602.43L690.248 560.207V507.759L763.38 549.982V602.43Z" fill="#AE835B"/>
<path d="M763.38 549.983L690.248 507.76L763.38 465.537L836.515 507.76L763.38 549.983Z" fill="#E8B687"/>
<path d="M731.968 564.999L720.218 558.213V525.063L731.968 531.846V564.999Z" fill="#9C754E"/>
<path d="M731.968 531.848L805.1 489.625L793.35 482.843L720.218 525.066L731.968 531.848Z" fill="#54493E"/>
<path d="M690.248 507.759L763.38 549.982L723.921 528.872L690.248 507.759Z" fill="#87623F"/>
<path d="M726.534 528.711L799.666 486.488L798.857 486.021L725.725 528.244L726.534 528.711Z" fill="#D1A986"/>
<path d="M643.953 657.358L570.821 615.135L643.953 572.912L668.236 657.358H643.953Z" fill="#BECDD4"/>
<path d="M668.236 657.356L741.368 615.133V562.688L668.236 604.911V657.356Z" fill="#C99A6B"/>
<path d="M668.236 657.356L595.104 615.133V562.688L668.236 604.911V657.356Z" fill="#AE835B"/>
<path d="M668.236 604.913L595.104 562.69L668.236 520.467L741.368 562.69L668.236 604.913Z" fill="#E8B687"/>
<path d="M636.824 619.929L625.074 613.143V579.99L636.824 586.776V619.929Z" fill="#9C754E"/>
<path d="M636.824 586.777L709.956 544.554L698.206 537.769L625.074 579.992L636.824 586.777Z" fill="#54493E"/>
<path d="M595.104 562.688L668.236 604.911L628.777 583.798L595.104 562.688Z" fill="#87623F"/>
<path d="M631.39 583.642L704.522 541.419L703.713 540.949L630.581 583.172L631.39 583.642Z" fill="#D1A986"/>
<path d="M548.809 712.29L475.677 670.067L548.809 627.844L573.092 712.29H548.809Z" fill="#BECDD4"/>
<path d="M573.092 712.288L646.224 670.065V617.62L573.092 659.843V712.288Z" fill="#C99A6B"/>
<path d="M573.092 712.288L499.96 670.065V617.62L573.092 659.843V712.288Z" fill="#AE835B"/>
<path d="M573.092 659.844L499.96 617.621L573.092 575.398L646.224 617.621L573.092 659.844Z" fill="#E8B687"/>
<path d="M541.68 674.857L529.93 668.075V634.922L541.68 641.708V674.857Z" fill="#9C754E"/>
<path d="M541.68 641.709L614.812 599.486L603.062 592.7L529.93 634.923L541.68 641.709Z" fill="#54493E"/>
<path d="M499.96 617.62L573.092 659.843L533.633 638.73L499.96 617.62Z" fill="#87623F"/>
<path d="M536.246 638.57L609.378 596.347L608.569 595.881L535.437 638.104L536.246 638.57Z" fill="#D1A986"/>
<path d="M858.524 492.337L931.656 450.114V397.666L858.524 439.889V492.337Z" fill="#C99A6B"/>
<path d="M858.524 492.337L785.392 450.114V397.666L858.524 439.889V492.337Z" fill="#AE835B"/>
<path d="M858.524 439.89L785.392 397.667L858.524 355.444L931.656 397.667L858.524 439.89Z" fill="#E8B687"/>
<path d="M827.112 454.906L815.362 448.124V414.971L827.112 421.757V454.906Z" fill="#9C754E"/>
<path d="M827.112 421.759L900.244 379.536L888.494 372.75L815.362 414.973L827.112 421.759Z" fill="#54493E"/>
<path d="M785.392 397.666L858.524 439.889L819.065 418.779L785.392 397.666Z" fill="#87623F"/>
<path d="M821.678 418.618L894.81 376.395L894.001 375.929L820.869 418.152L821.678 418.618Z" fill="#D1A986"/>
<path d="M763.38 547.267L836.515 505.044V452.596L763.38 494.819V547.267Z" fill="#C99A6B"/>
<path d="M763.38 547.267L690.248 505.044V452.596L763.38 494.819V547.267Z" fill="#AE835B"/>
<path d="M763.38 494.82L690.248 452.597L763.38 410.374L836.515 452.597L763.38 494.82Z" fill="#E8B687"/>
<path d="M731.968 509.836L720.218 503.05V469.9L731.968 476.683V509.836Z" fill="#9C754E"/>
<path d="M731.968 476.685L805.1 434.462L793.35 427.68L720.218 469.903L731.968 476.685Z" fill="#54493E"/>
<path d="M690.248 452.596L763.38 494.819L723.921 473.709L690.248 452.596Z" fill="#87623F"/>
<path d="M726.534 473.548L799.666 431.326L798.857 430.859L725.725 473.082L726.534 473.548Z" fill="#D1A986"/>
<path d="M668.236 602.2L741.368 559.977V507.528L668.236 549.751V602.2Z" fill="#C99A6B"/>
<path d="M668.236 602.2L595.104 559.977V507.528L668.236 549.751V602.2Z" fill="#AE835B"/>
<path d="M668.236 549.753L595.104 507.53L668.236 465.307L741.368 507.53L668.236 549.753Z" fill="#E8B687"/>
<path d="M636.824 564.768L625.074 557.982V524.829L636.824 531.615V564.768Z" fill="#9C754E"/>
<path d="M636.824 531.617L709.956 489.394L698.206 482.608L625.074 524.831L636.824 531.617Z" fill="#54493E"/>
<path d="M595.104 507.528L668.236 549.751L628.777 528.638L595.104 507.528Z" fill="#87623F"/>
<path d="M631.39 528.481L704.522 486.258L703.713 485.788L630.581 528.011L631.39 528.481Z" fill="#D1A986"/>
<path d="M573.092 657.129L646.224 614.906V562.461L573.092 604.684V657.129Z" fill="#C99A6B"/>
<path d="M573.092 657.129L499.96 614.906V562.461L573.092 604.684V657.129Z" fill="#AE835B"/>
<path d="M573.092 604.685L499.96 562.462L573.092 520.239L646.224 562.462L573.092 604.685Z" fill="#E8B687"/>
<path d="M541.68 619.702L529.93 612.916V579.763L541.68 586.549V619.702Z" fill="#9C754E"/>
<path d="M541.68 586.55L614.812 544.327L603.062 537.541L529.93 579.764L541.68 586.55Z" fill="#54493E"/>
<path d="M499.96 562.461L573.092 604.684L533.633 583.571L499.96 562.461Z" fill="#87623F"/>
<path d="M536.246 583.41L609.378 541.187L608.569 540.721L535.437 582.944L536.246 583.41Z" fill="#D1A986"/>
<path d="M959.319 305.942V317.586L576.521 538.796V527.153L959.319 305.942Z" fill="#FFC536"/>
<path d="M576.521 527.155V538.799L455.886 469.153V457.506L576.521 527.155Z" fill="#DD9A36"/>
<path d="M576.538 527.16L455.889 457.511L838.686 236.284L959.335 305.933L576.538 527.16Z" fill="#FFE25B"/>
<path d="M465.292 474.593V665.893L453.665 672.609V481.309L465.292 474.593Z" fill="#FFC536"/>
<path d="M453.665 481.308V672.608L444.245 667.167V475.867L453.665 481.308Z" fill="#DD9A36"/>
<path d="M453.678 481.316L444.245 475.872L455.872 469.143L465.305 474.586L453.678 481.316Z" fill="#FFE25B"/>
<path d="M576.488 538.815V730.112L564.864 736.828V545.528L576.488 538.815Z" fill="#FFC536"/>
<path d="M564.864 545.528V736.828L555.445 731.387V540.087L564.864 545.528Z" fill="#DD9A36"/>
<path d="M564.878 545.535L555.445 540.091L567.072 533.362L576.505 538.806L564.878 545.535Z" fill="#FFE25B"/>
<path d="M576.505 527.161V538.805L564.881 545.521V533.877L576.505 527.161Z" fill="#FFC536"/>
<path d="M564.881 533.876V545.519L444.245 475.87V464.227L564.881 533.876Z" fill="#DD9A36"/>
<path d="M564.894 533.88L444.245 464.231L455.873 457.502L576.521 527.151L564.894 533.88Z" fill="#FFE25B"/>
<path d="M834.241 340.428L761.109 298.205L834.241 255.982L858.524 340.428H834.241Z" fill="#BECDD4"/>
<path d="M858.524 340.427L931.656 298.204V245.756L858.524 287.979V340.427Z" fill="#C99A6B"/>
<path d="M858.524 340.427L785.392 298.204V245.756L858.524 287.979V340.427Z" fill="#AE835B"/>
<path d="M858.524 287.98L785.392 245.757L858.524 203.534L931.656 245.757L858.524 287.98Z" fill="#E8B687"/>
<path d="M827.112 302.996L815.362 296.214V263.061L827.112 269.843V302.996Z" fill="#9C754E"/>
<path d="M827.112 269.845L900.244 227.622L888.494 220.84L815.362 263.063L827.112 269.845Z" fill="#54493E"/>
<path d="M785.392 245.756L858.524 287.979L819.065 266.869L785.392 245.756Z" fill="#87623F"/>
<path d="M821.679 266.71L894.81 224.487L894.001 224.021L820.869 266.243L821.679 266.71Z" fill="#D1A986"/>
<path d="M739.097 395.36L665.965 353.137L739.097 310.914L763.38 395.36H739.097Z" fill="#BECDD4"/>
<path d="M763.38 395.359L836.515 353.136V300.688L763.38 342.91V395.359Z" fill="#C99A6B"/>
<path d="M763.38 395.359L690.248 353.136V300.688L763.38 342.91V395.359Z" fill="#AE835B"/>
<path d="M763.38 342.912L690.248 300.689L763.38 258.466L836.515 300.689L763.38 342.912Z" fill="#E8B687"/>
<path d="M731.968 357.928L720.218 351.142V317.992L731.968 324.775V357.928Z" fill="#9C754E"/>
<path d="M731.968 324.777L805.1 282.554L793.35 275.771L720.218 317.994L731.968 324.777Z" fill="#54493E"/>
<path d="M690.248 300.688L763.38 342.91L723.921 321.801L690.248 300.688Z" fill="#87623F"/>
<path d="M726.534 321.641L799.666 279.418L798.857 278.952L725.725 321.175L726.534 321.641Z" fill="#D1A986"/>
<path d="M548.809 505.222L475.677 462.999L548.809 420.776L573.092 505.222H548.809Z" fill="#BECDD4"/>
<path d="M573.092 505.221L646.224 462.998V410.553L573.092 452.776V505.221Z" fill="#C99A6B"/>
<path d="M573.092 505.221L499.96 462.998V410.553L573.092 452.776V505.221Z" fill="#AE835B"/>
<path d="M573.092 452.777L499.96 410.554L573.092 368.331L646.224 410.554L573.092 452.777Z" fill="#E8B687"/>
<path d="M541.68 467.79L529.93 461.008V427.854L541.68 434.64V467.79Z" fill="#9C754E"/>
<path d="M541.68 434.642L614.812 392.419L603.062 385.633L529.93 427.856L541.68 434.642Z" fill="#54493E"/>
<path d="M499.96 410.553L573.092 452.776L533.633 431.663L499.96 410.553Z" fill="#87623F"/>
<path d="M536.246 431.502L609.378 389.279L608.569 388.812L535.437 431.035L536.246 431.502Z" fill="#D1A986"/>
<path d="M858.524 285.271L931.656 243.048V190.6L858.524 232.823V285.271Z" fill="#C99A6B"/>
<path d="M858.524 285.271L785.392 243.048V190.6L858.524 232.823V285.271Z" fill="#AE835B"/>
<path d="M858.524 232.824L785.392 190.601L858.524 148.378L931.656 190.601L858.524 232.824Z" fill="#E8B687"/>
<path d="M827.112 247.84L815.362 241.057V207.904L827.112 214.69V247.84Z" fill="#9C754E"/>
<path d="M827.112 214.692L900.244 172.469L888.494 165.684L815.362 207.907L827.112 214.692Z" fill="#54493E"/>
<path d="M785.392 190.6L858.524 232.823L819.065 211.713L785.392 190.6Z" fill="#87623F"/>
<path d="M821.678 211.552L894.81 169.329L894.001 168.863L820.869 211.086L821.678 211.552Z" fill="#D1A986"/>
<path d="M763.38 340.201L836.515 297.979V245.53L763.38 287.753V340.201Z" fill="#C99A6B"/>
<path d="M763.38 340.201L690.248 297.979V245.53L763.38 287.753V340.201Z" fill="#AE835B"/>
<path d="M763.38 287.755L690.248 245.532L763.38 203.309L836.515 245.532L763.38 287.755Z" fill="#E8B687"/>
<path d="M731.968 302.77L720.218 295.988V262.835L731.968 269.617V302.77Z" fill="#9C754E"/>
<path d="M731.968 269.62L805.1 227.397L793.35 220.614L720.218 262.837L731.968 269.62Z" fill="#54493E"/>
<path d="M690.248 245.53L763.38 287.753L723.921 266.643L690.248 245.53Z" fill="#87623F"/>
<path d="M726.534 266.483L799.666 224.26L798.857 223.794L725.725 266.017L726.534 266.483Z" fill="#D1A986"/>
<path d="M573.092 450.061L646.224 407.839V355.394L573.092 397.617V450.061Z" fill="#C99A6B"/>
<path d="M573.092 450.061L499.96 407.839V355.394L573.092 397.617V450.061Z" fill="#AE835B"/>
<path d="M573.092 397.618L499.96 355.395L573.092 313.172L646.224 355.395L573.092 397.618Z" fill="#E8B687"/>
<path d="M541.68 412.635L529.93 405.849V372.696L541.68 379.482V412.635Z" fill="#9C754E"/>
<path d="M541.68 379.482L614.812 337.259L603.062 330.474L529.93 372.697L541.68 379.482Z" fill="#54493E"/>
<path d="M499.96 355.394L573.092 397.617L533.633 376.503L499.96 355.394Z" fill="#87623F"/>
<path d="M536.246 376.346L609.378 334.123L608.569 333.653L535.437 375.876L536.246 376.346Z" fill="#D1A986"/>
<path d="M959.319 102.982V114.626L576.521 335.836V324.193L959.319 102.982Z" fill="#FFC536"/>
<path d="M576.521 324.196V335.839L455.886 266.194V254.55L576.521 324.196Z" fill="#DD9A36"/>
<path d="M576.538 324.2L455.889 254.551L838.686 33.3242L959.335 102.973L576.538 324.2Z" fill="#FFE25B"/>
<path d="M465.292 271.636V462.933L453.665 469.649V278.352L465.292 271.636Z" fill="#FFC536"/>
<path d="M453.665 278.351V469.648L444.245 464.207V272.91L453.665 278.351Z" fill="#DD9A36"/>
<path d="M453.678 278.357L444.245 272.916L455.873 266.184L465.305 271.628L453.678 278.357Z" fill="#FFE25B"/>
<path d="M576.488 335.856V527.153L564.865 533.869V342.572L576.488 335.856Z" fill="#FFC536"/>
<path d="M564.864 342.574V533.871L555.445 528.431V337.134L564.864 342.574Z" fill="#DD9A36"/>
<path d="M564.878 342.576L555.445 337.136L567.072 330.403L576.505 335.847L564.878 342.576Z" fill="#FFE25B"/>
<path d="M576.505 324.202V335.846L564.881 342.562V330.918L576.505 324.202Z" fill="#FFC536"/>
<path d="M564.881 330.917V342.56L444.245 272.915V261.268L564.881 330.917Z" fill="#DD9A36"/>
<path d="M564.894 330.925L444.245 261.275L455.873 254.543L576.521 324.192L564.894 330.925Z" fill="#FFE25B"/>
<path d="M834.241 137.12L761.109 94.8968L834.241 52.6738L858.524 137.12H834.241Z" fill="#BECDD4"/>
<path d="M858.524 137.119L931.656 94.8961V42.4512L858.524 84.6741V137.119Z" fill="#C99A6B"/>
<path d="M858.524 137.119L785.392 94.8961V42.4512L858.524 84.6741V137.119Z" fill="#AE835B"/>
<path d="M858.524 84.6754L785.392 42.4525L858.524 0.229492L931.656 42.4525L858.524 84.6754Z" fill="#E8B687"/>
<path d="M827.112 99.6885L815.362 92.906V59.7529L827.112 66.5387V99.6885Z" fill="#9C754E"/>
<path d="M827.112 66.54L900.244 24.317L888.494 17.5312L815.362 59.7542L827.112 66.54Z" fill="#54493E"/>
<path d="M785.392 42.4512L858.524 84.6741L819.065 63.561L785.392 42.4512Z" fill="#87623F"/>
<path d="M821.679 63.4001L894.81 21.1771L894.001 20.7109L820.869 62.9339L821.679 63.4001Z" fill="#D1A986"/>
<path d="M739.097 192.054L665.965 149.831L739.097 107.608L763.38 192.054H739.097Z" fill="#BECDD4"/>
<path d="M763.38 192.053L836.515 149.83V97.3818L763.38 139.605V192.053Z" fill="#C99A6B"/>
<path d="M763.38 192.053L690.248 149.83V97.3818L763.38 139.605V192.053Z" fill="#AE835B"/>
<path d="M763.38 139.606L690.248 97.3831L763.38 55.1602L836.515 97.3831L763.38 139.606Z" fill="#E8B687"/>
<path d="M731.968 154.622L720.218 147.84V114.687L731.968 121.469V154.622Z" fill="#9C754E"/>
<path d="M731.968 121.471L805.1 79.2483L793.35 72.4658L720.218 114.689L731.968 121.471Z" fill="#54493E"/>
<path d="M690.248 97.3818L763.38 139.605L723.921 118.495L690.248 97.3818Z" fill="#87623F"/>
<path d="M726.534 118.333L799.666 76.1097L798.857 75.6436L725.725 117.867L726.534 118.333Z" fill="#D1A986"/>
<path d="M643.953 246.985L570.821 204.762L643.953 162.539L668.236 246.985H643.953Z" fill="#BECDD4"/>
<path d="M668.236 246.985L741.368 204.762V152.313L668.236 194.536V246.985Z" fill="#C99A6B"/>
<path d="M668.236 246.985L595.104 204.762V152.313L668.236 194.536V246.985Z" fill="#AE835B"/>
<path d="M668.236 194.538L595.104 152.315L668.236 110.092L741.368 152.315L668.236 194.538Z" fill="#E8B687"/>
<path d="M636.824 209.554L625.074 202.768V169.618L636.824 176.401V209.554Z" fill="#9C754E"/>
<path d="M636.824 176.402L709.956 134.179L698.206 127.396L625.074 169.619L636.824 176.402Z" fill="#54493E"/>
<path d="M595.104 152.313L668.236 194.536L628.777 173.427L595.104 152.313Z" fill="#87623F"/>
<path d="M631.39 173.265L704.522 131.042L703.713 130.576L630.581 172.799L631.39 173.265Z" fill="#D1A986"/>
<path d="M548.809 301.914L475.677 259.691L548.809 217.468L573.092 301.914H548.809Z" fill="#BECDD4"/>
<path d="M573.092 301.912L646.224 259.689V207.241L573.092 249.464V301.912Z" fill="#C99A6B"/>
<path d="M573.092 301.912L499.96 259.689V207.241L573.092 249.464V301.912Z" fill="#AE835B"/>
<path d="M573.092 249.466L499.96 207.243L573.092 165.02L646.224 207.243L573.092 249.466Z" fill="#E8B687"/>
<path d="M541.68 264.483L529.93 257.697V224.544L541.68 231.33V264.483Z" fill="#9C754E"/>
<path d="M541.68 231.331L614.812 189.108L603.062 182.325L529.93 224.545L541.68 231.331Z" fill="#54493E"/>
<path d="M499.96 207.241L573.092 249.464L533.633 228.354L499.96 207.241Z" fill="#87623F"/>
<path d="M536.246 228.194L609.378 185.971L608.569 185.505L535.437 227.728L536.246 228.194Z" fill="#D1A986"/>
<path d="M763.38 136.893L836.515 94.6699V42.2217L763.38 84.448V136.893Z" fill="#C99A6B"/>
<path d="M763.38 136.893L690.248 94.6699V42.2217L763.38 84.448V136.893Z" fill="#AE835B"/>
<path d="M763.38 84.4493L690.248 42.223L763.38 0L836.515 42.223L763.38 84.4493Z" fill="#E8B687"/>
<path d="M731.968 99.4619L720.218 92.6794V59.5264L731.968 66.3121V99.4619Z" fill="#9C754E"/>
<path d="M731.968 66.3144L805.1 24.0914L793.35 17.3057L720.218 59.5286L731.968 66.3144Z" fill="#54493E"/>
<path d="M690.248 42.2217L763.38 84.448L723.921 63.3348L690.248 42.2217Z" fill="#87623F"/>
<path d="M726.534 63.1735L799.666 20.9505L798.857 20.4844L725.725 62.7073L726.534 63.1735Z" fill="#D1A986"/>
<path d="M636.854 1100.28L463.431 1000.15L452.463 1006.49L463.447 1000.14L430.068 980.871L281.93 1066.4L315.309 1085.67L488.733 1185.8L537.532 1207.08L553.49 1197.87L516.628 1169.69L476.52 1146.54L568.847 1093.23L608.955 1116.39L657.754 1137.67L673.713 1128.46L636.854 1100.28ZM398.643 1101.57L343.211 1069.56L435.535 1016.26L490.967 1048.26L398.643 1101.57Z" fill="#BFB5BF"/>
<path d="M317.84 941.308C314.204 939.211 310.288 937.383 306.229 935.721C301.877 929.195 295.205 923.072 286.098 917.814C251.054 897.58 194.061 897.684 158.797 918.044C123.533 938.405 123.356 971.308 158.397 991.542C162.033 993.64 165.949 995.468 170.008 997.13C174.359 1003.66 181.032 1009.78 190.139 1015.04C225.183 1035.27 282.176 1035.16 317.44 1014.81C352.707 994.449 352.884 961.542 317.84 941.308Z" fill="#BFB5BF"/>
<path d="M302.773 672.387C302.773 672.387 297.892 681.048 288.409 681.321H287.926C286.485 681.391 285.246 681.321 284.214 681.184C278.58 680.635 277.824 678.297 276.929 675.411C275.83 671.974 258.03 597.411 272.667 593.016C272.943 593.016 280.431 593.082 283.664 600.161C285.725 604.629 289.847 621.534 293.077 635.828C295.002 644.555 296.583 652.39 297.203 655.756C298.438 662.835 301.188 669.088 302.22 671.425C302.29 671.355 302.29 671.355 302.29 671.425C302.567 672.048 302.773 672.387 302.773 672.387Z" fill="#FEBFBF"/>
<path d="M316.518 725.372C316.245 725.991 316.175 726.953 316.311 727.915C316.241 727.846 316.241 727.846 316.241 727.846C316.171 727.569 314.387 722.555 304.351 714.171C294.386 705.787 285.522 691.563 284.284 686.681L284.214 681.184C278.58 680.635 277.824 678.297 276.929 675.411C275.83 671.974 258.03 597.411 272.667 593.016C272.943 593.016 280.431 593.082 283.664 600.161C285.725 604.629 289.847 621.534 293.077 635.828C293.007 635.895 293.007 635.895 293.007 635.895C292.528 637.683 284.141 640.569 284.141 640.569C284.141 640.569 285.722 666.89 285.652 668.815C285.516 670.739 289.844 675.274 289.844 675.274C289.844 675.274 289.844 675.274 289.774 675.344C289.361 675.823 287.573 677.954 287.92 681.321C287.92 682.143 288.126 683.109 288.539 684.137C290.67 689.635 303.659 708.467 307.851 714.65C312.043 720.907 317.334 723.86 317.334 723.86C317.334 723.86 317.344 723.86 316.518 725.372Z" fill="url(#paint3_linear_939_2472)"/>
<path d="M293.101 634.062C293.101 634.062 286.794 638.367 281.377 636.486C276.173 634.678 262.621 587.41 262.621 587.41C262.621 587.41 263.753 585.06 271.838 587.044C279.922 589.029 283.678 596.79 284.833 600.752C285.985 604.711 293.101 634.062 293.101 634.062Z" fill="#279F9E"/>
<path d="M281.72 959.504C281.72 959.504 292.628 964.512 294.755 966.323C296.883 968.131 310.421 979.465 311.327 981.22C312.229 982.974 316.471 986.511 316.521 990.406C316.571 994.302 311.813 997.968 307.807 997.864C303.799 997.761 291.049 993.669 286.032 988.618C281.014 983.567 277.984 980.001 277.068 979.725C276.153 979.445 276.069 979.981 273.792 980.364C271.515 980.75 262.295 976.495 261.179 973.994C260.064 971.494 257.72 961.219 259.132 958.292C260.55 955.359 281.72 959.504 281.72 959.504Z" fill="#554D4E"/>
<path d="M283.208 956.292C283.208 956.292 293.37 966.634 294.289 968.991C295.208 971.352 290.643 973.6 284.274 973.893C277.904 974.189 270.01 967.516 270.01 967.516C270.01 967.516 263.194 957.764 266.187 952.746C269.184 947.732 283.208 956.292 283.208 956.292Z" fill="#FEBFBF"/>
<path d="M285.799 750.946C285.799 750.946 287.973 750.176 292.188 786.819C296.061 820.475 295.738 844.851 294.955 855.972C294.173 867.093 288.073 954.336 288.006 958.741C287.94 963.146 278.344 965.633 272.493 965.237C266.643 964.837 261.406 959.547 261.249 956.567C261.093 953.587 254.48 879.566 259.205 854.823C260.58 847.625 240.789 797.417 240.789 797.417C240.789 797.417 236.77 759.949 240.05 751.981C243.336 744.01 285.799 750.946 285.799 750.946Z" fill="#7282B5"/>
<path d="M272.747 965.185H272.54C266.63 964.842 261.406 959.548 261.269 956.525C261.133 953.571 254.467 879.557 259.208 854.818C260.583 847.599 240.815 797.375 240.815 797.375C240.815 797.375 240.679 795.794 240.403 793.253L259.621 789.188C259.621 789.188 255.772 796.06 259.897 809.528C264.089 822.93 264.432 850.556 264.985 854.541C265.535 858.527 260.38 860.039 261.825 889.795C262.987 914.125 262.438 951.027 272.747 965.185Z" fill="#E8D0C8"/>
<path d="M193.578 934.675C193.578 934.675 200.913 945.233 201.819 946.988C202.721 948.742 213.07 965.82 213.453 968.097C213.835 970.375 213.303 972.349 211.671 973.981C210.04 975.616 203.743 977.893 199.382 976.721C195.02 975.549 188.234 971.84 184.655 968.107C181.075 964.375 176.89 953.98 176.89 953.98C176.89 953.98 172.515 949.082 171.323 946.678C170.131 944.277 167.171 941.134 166.854 937.718C166.538 934.302 166.169 932.108 169.368 929.487C172.565 926.86 193.578 934.675 193.578 934.675Z" fill="#554D4E"/>
<path d="M193.894 932.14C193.894 932.14 198.323 943.751 198.426 945.902C198.529 948.053 193.332 950.16 188.4 949.528C183.469 948.895 181.508 944.327 180.026 942.942C178.545 941.556 172.195 931.035 173.72 927.742C175.245 924.446 193.894 932.14 193.894 932.14Z" fill="#FEBFBF"/>
<path d="M260.693 756.149C260.693 756.149 262.005 772.121 262.355 778.307C262.708 784.494 262.964 793.094 262.964 793.094L251.467 807.874C251.467 807.874 244.375 814.344 233.527 868.054C224.75 885.235 196.858 935.153 196.858 935.153C196.858 935.153 188.88 943.407 179.504 938.895C171.319 934.956 168.319 928.41 168.379 927.128C168.539 923.526 186.513 878.825 188.897 872.406C191.281 865.99 200.454 850.271 200.454 850.271C200.454 850.271 200.497 826.41 199.784 818.446C198.476 803.862 185.793 767.629 190.129 760.421C194.46 753.209 260.693 756.149 260.693 756.149Z" fill="#7282B5"/>
<path d="M172.761 932.139L171.11 931.656C184.755 884.915 195.103 871.393 201.289 863.315C203.344 860.628 204.832 858.684 205.731 856.36C213.536 836.052 203.537 799.237 201.449 792.065C196.585 775.31 198.759 764.192 198.859 763.729L200.537 764.072C200.517 764.182 198.363 775.273 203.101 791.588C205.215 798.854 215.34 836.159 207.329 856.979C206.35 859.536 204.799 861.561 202.651 864.361C196.538 872.342 186.309 885.704 172.761 932.139Z" fill="#A0ABCD"/>
<path d="M204.253 853.865C195.456 863.142 187.278 885.477 181.025 900.939C175.871 913.722 171.609 923.205 171.196 932.414C169.202 929.941 168.31 927.81 168.379 927.124C168.516 923.481 186.523 878.811 188.927 872.351C191.264 865.958 200.47 850.223 200.47 850.223C200.47 850.223 200.54 826.379 199.784 818.405C198.479 803.834 185.833 767.621 190.165 760.403C190.784 759.374 192.846 758.548 196.009 757.929C196.009 758.135 196.079 758.342 196.079 758.548C196.079 758.548 192.915 760.06 197.727 780.883C202.535 801.707 208.718 835.859 204.253 853.865Z" fill="#E8D0C8"/>
<path d="M186.196 759.17C186.196 759.17 197.164 771.001 213.569 772.639C247.951 776.075 284.35 759.703 288.546 754.366C288.546 754.366 284.45 719.019 284.453 702.593C284.453 686.168 283.385 660.673 284.51 644.059C285.635 627.444 286.178 608.069 275.044 591.238C268.378 581.162 246.516 590.335 239.916 589.599C233.314 588.863 224.304 583.446 214.948 591.044C205.591 598.639 187.432 605.665 183.566 616.403C179.054 628.939 179.993 645.381 188.49 682.263C197.933 723.264 186.196 759.17 186.196 759.17Z" fill="#279F9E"/>
<path d="M275.653 748.15C275.653 748.15 285.206 757.063 281.014 755.555L271.325 753.424C267.133 751.772 260.69 756.148 228.303 745.14C218.39 741.77 200.487 731.415 200.487 731.415C200.487 731.415 194.697 754.769 193.322 765.011C188.787 761.918 186.176 759.167 186.176 759.167C186.176 759.167 198.409 723.158 188.514 682.266C187.415 677.662 186.383 673.4 185.56 669.484C193.395 654.914 201.353 636.005 211.248 635.868C211.248 635.868 219.106 670.483 215.67 690.824C212.234 711.164 208.099 711.747 208.099 711.747L244.728 732.817L275.653 748.15Z" fill="#DEDEDE"/>
<path d="M255.629 593.017C255.559 599.68 257.277 602.5 255.699 604.974C254.324 606.968 242.573 609.649 237.556 607.588C235.838 606.898 234.256 606.146 232.881 605.457C232.881 605.457 232.811 605.387 232.744 605.387C223.055 600.439 220.994 596.18 219.895 594.186C218.657 591.918 219.965 589.994 219.965 589.994C219.965 589.994 227.251 580.375 226.495 572.194C226.288 570.066 226.082 565.734 225.945 561.476C225.739 556.045 225.532 550.824 225.532 550.824C225.532 550.824 230.001 542.097 234.053 542.577C238.108 543.126 257.28 563.537 257.28 563.537C257.28 563.537 256.731 571.784 256.248 579.822C255.975 584.357 255.769 588.825 255.699 591.712C255.629 592.191 255.629 592.604 255.629 593.017Z" fill="#FFADB7"/>
<path d="M256.248 579.821C255.975 584.356 255.769 588.824 255.699 591.711C254.324 591.781 252.263 591.368 249.446 590.269C236.94 585.322 233.777 586.147 229.861 588.964C226.355 591.575 227.593 600.508 232.748 605.389C223.059 600.441 220.997 596.183 219.899 594.188C218.66 591.921 219.969 589.996 219.969 589.996C219.969 589.996 227.254 580.377 226.498 572.196C226.292 570.069 226.085 565.737 225.949 561.478C240.449 558.248 249.519 560.17 249.519 560.17L256.248 579.821Z" fill="url(#paint4_linear_939_2472)"/>
<path d="M229.794 550.253C229.794 550.253 230.727 571.176 232.778 575.601C234.825 580.027 249.589 591.411 263.83 589.439C267.649 587.405 273.526 576.87 274.198 567.564C274.871 558.254 274.115 554.825 274.325 554.009C274.535 553.193 277.391 547.506 276.948 544.889C276.506 542.275 275.756 527.568 270.679 521.139C265.601 514.709 251.573 510.747 238.984 515.825C226.395 520.902 229.794 550.253 229.794 550.253Z" fill="#FEBFBF"/>
<path d="M234.256 557.651C234.256 557.651 235.461 549.381 230.271 547.916C225.08 546.451 225.456 555.607 225.456 555.607L226.695 570.101L226.518 572.192C226.518 572.192 221.177 561.857 219.413 558.597C217.648 555.337 216.815 554.005 216.116 550.393C215.42 546.78 212.627 531.291 213.363 525.873C214.095 520.46 223.388 512.295 230.487 511.703C233.74 507.337 240.366 505.872 246.779 505.829C253.192 505.786 257.993 505.579 265.684 511.566C273.376 517.553 273.216 522.238 273.809 523.696C274.401 525.154 274.984 531.647 274.984 531.647L274.032 528.088C274.032 528.088 270.982 530.102 261.476 529.28C251.97 528.457 246.729 524.658 246.729 524.658C246.729 524.658 248.474 531.391 248.114 533.881C247.754 536.372 246.279 544.08 246.279 544.08C246.279 544.08 241.391 546.987 239.763 548.129C238.135 549.271 237.366 551.918 237.366 551.918L236.747 558.527L234.256 557.651Z" fill="#754554"/>
<path d="M276.452 530.686L275.077 532.404C275.077 532.404 249.925 539.825 247.381 540.445C246.213 540.721 244.288 541.613 241.471 542.506C237.965 543.675 233.157 544.913 226.764 545.393C215.357 546.355 215.357 546.355 215.357 546.355C215.357 546.355 211.714 535.427 213.433 525.395C214.808 517.424 224.014 510.482 234.736 507.252C234.736 507.252 234.805 507.252 234.805 507.182C237.556 506.359 240.443 505.74 243.326 505.464C257.277 504.022 266.69 509.932 271.158 516.668C275.56 523.4 276.452 530.686 276.452 530.686Z" fill="#279F9E"/>
<path d="M241.471 542.506C237.965 543.675 233.157 544.913 226.764 545.393C215.357 546.355 215.357 546.355 215.357 546.355C215.357 546.355 211.714 535.427 213.433 525.395C214.808 517.424 224.014 510.482 234.736 507.252C231.919 508.9 223.671 510.964 225.939 526.977C227.797 540.099 237.899 542.16 241.471 542.506Z" fill="#FCF5E8"/>
<path d="M241.485 542.491C241.485 542.491 261.526 559.728 268.418 552.783C273.276 547.888 285.332 543.213 290.63 544.788C295.927 546.363 295.927 546.363 295.927 546.363C295.927 546.363 297.049 546.137 296.906 544.848C296.763 543.56 276.432 530.674 276.432 530.674C276.432 530.674 268.385 522.097 241.485 542.491Z" fill="#725E6D"/>
<path d="M231.476 553.263C231.476 553.263 228.662 545.845 222.985 548.711C217.312 551.578 225.453 566.382 229.128 566.585C232.804 566.788 232.122 562.999 232.122 562.999C232.122 562.999 228.163 556.773 231.476 553.263Z" fill="url(#paint5_linear_939_2472)"/>
<path d="M191.527 718.972C191.527 718.972 187.052 709.839 185.241 692.308C183.429 674.781 178.305 620.039 186.15 612.554C193.994 605.069 204.639 612.644 208.262 620.325C211.884 628.006 213.889 667.043 213.15 680.292C212.41 693.54 213.276 702.74 209.89 709.319C206.5 715.902 201.826 720.217 191.527 718.972Z" fill="#FEBFBF"/>
<path d="M192.113 608.757C188.237 608.757 180.483 613.082 180.483 627.516C180.483 644.321 182.241 660.01 182.45 665.594C186.846 667.771 194.251 668.231 201.123 667.878C207.995 667.525 214.312 665.793 214.312 664.828C214.312 663.862 213.046 635.773 210.15 624.606C207.249 613.438 197.377 608.757 192.113 608.757Z" fill="#279F9E"/>
<path d="M409.607 964.62L422.16 971.869V992.762L409.607 985.513V964.62Z" fill="#A25900"/>
<path d="M381.609 971.996C381.609 963.249 375.429 952.591 367.804 948.186C364.165 946.085 360.878 945.835 358.414 947.054L358.381 947.014L358.135 947.157C358.078 947.187 358.022 947.22 357.968 947.253L351.822 950.796L354.136 954.618C354.093 955.101 354.003 955.537 354.003 956.057C354.003 964.804 360.183 975.465 367.804 979.864C368.573 980.306 369.312 980.613 370.048 980.899L371.973 984.076L377.513 980.879C377.547 980.859 377.576 980.843 377.61 980.823L377.873 980.669L377.876 980.603C380.174 979.108 381.609 976.168 381.609 971.996Z" fill="#3B4549"/>
<path d="M348.103 959.465C348.103 968.212 354.282 978.87 361.904 983.272C369.529 987.674 375.709 984.151 375.709 975.404C375.709 966.657 369.529 955.996 361.904 951.597C354.282 947.192 348.103 950.715 348.103 959.465Z" fill="#5C6467"/>
<path d="M373.338 976.768C373.338 968.021 367.158 957.36 359.533 952.958C355.894 950.857 352.608 950.607 350.144 951.826L350.11 951.786L349.864 951.929C349.807 951.959 349.751 951.992 349.698 952.026L343.551 955.568L345.865 959.391C345.822 959.874 345.732 960.31 345.732 960.829C345.732 969.576 351.912 980.238 359.533 984.636C360.302 985.079 361.042 985.385 361.777 985.672L363.702 988.848L369.242 985.652C369.276 985.632 369.306 985.615 369.339 985.595L369.602 985.442L369.605 985.375C371.903 983.877 373.338 980.94 373.338 976.768Z" fill="#3B4549"/>
<path d="M339.832 964.24C339.832 972.987 346.012 983.645 353.636 988.046C361.261 992.448 367.438 988.925 367.438 980.179C367.438 971.432 361.258 960.77 353.636 956.372C346.012 951.97 339.832 955.493 339.832 964.24Z" fill="#5C6467"/>
<path d="M371.187 993.661V1007.34L363.935 1011.52L343.964 961.174L357.858 964.14L371.187 993.661Z" fill="#CE7400"/>
<path d="M363.935 997.846V1011.52L336.715 991.593V965.358L350.61 968.325L363.935 997.846Z" fill="#EDA600"/>
<path d="M335.72 976.831L370.135 956.959V953.094L320.86 964.384V968.25L335.72 976.831Z" fill="#EDA600"/>
<path d="M335.72 972.964L370.135 953.093L355.278 944.516L320.86 964.383L335.72 972.964Z" fill="#FECB4C"/>
<path d="M342.476 994.644C342.476 985.897 336.296 975.239 328.671 970.834C325.032 968.733 321.745 968.483 319.281 969.702L319.248 969.662L319.002 969.805C318.945 969.835 318.889 969.868 318.835 969.902L312.689 973.444L315.003 977.267C314.96 977.75 314.87 978.186 314.87 978.705C314.87 987.452 321.049 998.114 328.674 1002.51C329.443 1002.95 330.183 1003.26 330.918 1003.55L332.843 1006.72L338.383 1003.53C338.417 1003.51 338.45 1003.49 338.48 1003.47L338.743 1003.32L338.746 1003.25C341.04 1001.76 342.476 998.816 342.476 994.644Z" fill="#3B4549"/>
<path d="M308.97 982.112C308.97 990.859 315.149 1001.52 322.771 1005.92C330.396 1010.32 336.576 1006.8 336.576 998.051C336.576 989.304 330.396 978.642 322.771 974.244C315.149 969.842 308.97 973.365 308.97 982.112Z" fill="#5C6467"/>
<path d="M334.205 999.419C334.205 990.672 328.025 980.01 320.403 975.608C316.764 973.507 313.478 973.258 311.014 974.476L310.981 974.436L310.734 974.58C310.678 974.61 310.621 974.643 310.568 974.676L304.421 978.219L306.735 982.041C306.692 982.524 306.602 982.96 306.602 983.48C306.602 992.227 312.782 1002.89 320.407 1007.29C321.176 1007.73 321.915 1008.04 322.651 1008.32L324.576 1011.5L330.116 1008.3C330.149 1008.28 330.183 1008.27 330.213 1008.25L330.476 1008.09L330.479 1008.03C332.773 1006.53 334.205 1003.59 334.205 999.419Z" fill="#3B4549"/>
<path d="M300.699 986.886C300.699 995.632 306.879 1006.29 314.503 1010.69C322.128 1015.09 328.308 1011.57 328.308 1002.82C328.308 994.078 322.128 983.416 314.503 979.018C306.879 974.613 300.699 978.139 300.699 986.886Z" fill="#5C6467"/>
<path d="M370.135 953.094V956.959L335.72 976.831V972.965L370.135 953.094Z" fill="#CE7400"/>
<path d="M329.433 813.431L322.399 814.666L348.98 966.08L356.014 964.845L329.433 813.431Z" fill="#FFC536"/>
<path d="M310.358 826.395C306.016 826.395 302.117 824.9 299.27 821.926L283.601 805.564C281.547 803.427 280.165 800.593 279.602 797.383L276.762 781.065C274.911 770.417 282.299 756.975 293.593 750.456L329.39 729.789C335.993 725.973 342.845 725.214 348.189 727.721C352.518 729.745 355.391 733.668 356.277 738.765L359.117 755.077C359.64 758.064 359.467 761.297 358.594 764.687L350.956 794.507C348.755 803.134 342.399 811.371 334.371 816.009L322.554 822.832C318.426 825.216 314.217 826.395 310.358 826.395ZM341.377 735.346C339.163 735.346 336.559 736.135 333.928 737.653L298.132 758.32C290.2 762.902 284.507 772.604 285.702 779.507L288.542 795.819C288.799 797.264 289.341 798.432 290.154 799.278L305.83 815.647C308.17 818.094 313.065 817.817 318.016 814.964L329.833 808.142C335.72 804.739 340.564 798.502 342.163 792.253L349.801 762.426C350.337 760.321 350.473 758.324 350.177 756.639L347.337 740.32C346.961 738.169 345.955 736.694 344.343 735.945C343.484 735.542 342.479 735.346 341.377 735.346Z" fill="#554D4E"/>
<path d="M357.386 914.189C360.635 908.739 364.964 904.244 369.465 901.647C373.967 899.046 378.296 898.543 381.545 900.242L394.098 907.49L393.039 908.103L445.444 943.94V963.175L293.49 1050.9V1031.67L357.386 914.189Z" fill="#FECB4C"/>
<path d="M306.049 1038.92V1059.81L341.453 1039.37L341.81 1024.38L422.16 977.964V992.764L457.993 972.087V951.197L394.085 907.489C390.848 905.801 386.52 906.301 382.021 908.894C377.523 911.488 373.195 915.987 369.935 921.434L306.049 1038.92Z" fill="#ED9600"/>
<path d="M607.284 1091.32L635.902 1074.8L429.372 980.271V988.602L607.284 1091.32Z" fill="#EDA600"/>
<path d="M607.284 1091.32L635.902 1074.79L673.717 1103.7L657.345 1113.15L607.284 1091.32Z" fill="#EDA600"/>
<path d="M483.951 1162.53L512.569 1146L306.039 1051.48V1059.81L483.951 1162.53Z" fill="#EDA600"/>
<path d="M483.951 1162.52L512.569 1146L550.384 1174.9L534.012 1184.36L483.951 1162.52Z" fill="#EDA600"/>
<path d="M607.284 1082.99L635.902 1066.47L457.99 963.751L429.372 980.273L607.284 1082.99Z" fill="#FECB4C"/>
<path d="M607.284 1082.99L635.902 1066.46L673.717 1095.37L657.345 1104.82L607.284 1082.99Z" fill="#FECB4C"/>
<path d="M483.951 1154.2L512.569 1137.67L334.658 1034.96L306.039 1051.48L483.951 1154.2Z" fill="#FECB4C"/>
<path d="M483.951 1154.19L512.569 1137.67L550.384 1166.58L534.012 1176.03L483.951 1154.19Z" fill="#FECB4C"/>
<path d="M293.487 1031.67L306.039 1038.92V1059.81L293.487 1052.56V1031.67Z" fill="#EDA600"/>
<path d="M673.717 1095.37V1103.7L657.345 1113.15V1104.82L673.717 1095.37Z" fill="#ED9600"/>
<path d="M550.384 1166.58V1174.91L534.012 1184.36V1176.03L550.384 1166.58Z" fill="#ED9600"/>
<path d="M317.549 743.578L308.624 745.212L321.641 816.303L330.566 814.669L317.549 743.578Z" fill="#554D4E"/>
<path d="M347.51 731.351C347.44 731.627 345.585 741.04 345.449 742.139C345.312 743.171 343.388 744.064 343.388 744.064C343.388 744.064 342.426 745.575 340.914 746.055C339.402 746.604 337.271 746.468 337.271 746.468C337.271 746.468 322.221 744.13 320.57 741.243C319.058 738.496 316.584 729.353 316.311 727.981V727.912C316.241 727.842 316.241 727.842 316.241 727.842C316.171 727.565 314.387 722.551 304.351 714.167C294.386 705.783 285.522 691.559 284.284 686.678L284.214 681.18L284.144 677.468C284.144 677.468 286.618 676.506 289.781 675.34C289.851 675.27 289.851 675.27 289.851 675.27C294.799 673.416 301.258 671.078 302.22 671.425C302.29 671.355 302.29 671.355 302.29 671.425C302.77 672.387 306.206 674.861 311.979 686.747C317.823 698.638 328.817 720.49 329.78 721.039C330.672 721.655 344.487 724.475 345.998 726.194C347.51 727.915 347.58 731.078 347.51 731.351Z" fill="#FEBFBF"/>
<path d="M316.518 725.37C316.245 725.99 316.175 726.952 316.311 727.914C316.241 727.844 316.241 727.844 316.241 727.844C316.171 727.568 314.387 722.554 304.351 714.17C294.386 705.786 285.522 691.561 284.284 686.68L284.214 681.183L284.144 677.47C284.144 677.47 286.618 676.508 289.781 675.343C289.368 675.822 287.254 679.445 287.597 682.811C287.597 683.637 288.129 685.661 288.542 686.694C290.673 692.191 302.647 709.292 307.854 714.649C313.132 720.083 317.337 723.859 317.337 723.859C317.337 723.859 317.344 723.859 316.518 725.37Z" fill="url(#paint6_linear_939_2472)"/>
<path d="M325.767 738.892C325.767 738.892 327.176 737.144 328.191 734.447C329.207 731.75 329.926 730.005 329.926 730.005L331.171 735.429L331.261 740.3L332.93 743.383L335.217 745.045L330.362 745.138C330.362 745.138 324.952 741.835 325.767 738.892Z" fill="#FA9698"/>
<path d="M318.086 726.297C318.086 726.297 321.762 725.824 323.523 730.732C325.285 735.639 326.896 739.762 328.148 741.17C329.397 742.578 332.41 743.844 332.41 743.844C332.41 743.844 337.151 745.678 337.711 746.584C338.27 747.486 338.74 748.582 338.497 749.987C338.254 751.392 336.326 751.092 336.143 750.999C335.959 750.906 333.113 750.08 333.113 750.08C333.113 750.08 330.612 750.25 329.683 749.664C328.754 749.081 321.249 743.617 320.237 741.779C319.225 739.941 316.911 734.178 316.624 730.652C316.345 727.122 316.578 726.639 318.086 726.297Z" fill="#FEC7C6"/>
<path d="M199.974 700.875C199.974 700.875 207.902 698.741 213.066 702.61C218.231 706.479 258.243 739.998 269.367 743.828C269.963 744.25 276.353 747.14 279.692 747.58C283.032 748.016 294.422 747.48 295.837 748.256C297.253 749.032 300.932 757.446 301.365 759.021C301.797 760.595 301.681 764.544 301.378 765.247C301.075 765.949 297.206 766.169 297.206 766.169C297.206 766.169 296.78 767.734 295.877 768.93C294.975 770.125 291.073 769.832 291.073 769.832C291.073 769.832 290.374 770.614 288.665 770.711C286.957 770.807 285.955 770.238 285.955 770.238C285.955 770.238 284.747 772.076 281.307 770.844C277.868 769.612 277.581 767.631 277.581 767.631L277.172 763.486C277.172 763.486 269.001 763.439 265.108 761.261C261.216 759.084 259.308 755.711 256.465 753.93C253.621 752.148 196.105 733.159 191.527 718.969C186.945 704.784 199.974 700.875 199.974 700.875Z" fill="#FEBFBF"/>
<path d="M449.836 1128.24L591.222 1046.62V963.691L449.836 1045.32V1128.24Z" fill="#C99A6B"/>
<path d="M449.836 1128.24L334.205 1061.49V978.562L449.836 1045.32V1128.24Z" fill="#AE835B"/>
<path d="M449.836 1045.32L334.205 978.563L475.591 896.934L591.222 963.693L449.836 1045.32Z" fill="#87623F"/>
<path d="M400.168 1069.06L381.592 1058.34V1005.92L400.168 1016.65V1069.06Z" fill="#9C754E"/>
<path d="M400.168 1016.65L541.554 935.016L522.974 924.288L381.592 1005.92L400.168 1016.65Z" fill="#54493E"/>
<path d="M334.205 978.562L449.836 1045.32L387.442 1011.94L334.205 978.562Z" fill="#87623F"/>
<path d="M391.577 1011.68L532.96 930.055L531.685 929.315L390.299 1010.94L391.577 1011.68Z" fill="#D1A986"/>
<path d="M442.228 1078.2L417.818 1064.11V1036.1L442.228 1050.19V1078.2ZM419.43 1063.19L440.616 1075.42V1051.11L419.43 1038.88V1063.19Z" fill="#87623F"/>
<path d="M432.715 1069.23L427.331 1066.13V1052.02L432.715 1055.12V1069.23Z" fill="#87623F"/>
<path d="M438.006 1060.86L422.04 1051.65L430.021 1046.63L438.006 1060.86Z" fill="#87623F"/>
<path d="M449.836 1041.86L591.222 960.23V877.306L449.836 958.935V1041.86Z" fill="#C99A6B"/>
<path d="M449.836 1041.86L334.205 975.1V892.176L449.836 958.935V1041.86Z" fill="#AE835B"/>
<path d="M449.836 958.936L334.205 892.177L475.591 810.548L591.222 877.307L449.836 958.936Z" fill="#E8B687"/>
<path d="M400.168 982.677L381.592 971.953V919.534L400.168 930.262V982.677Z" fill="#9C754E"/>
<path d="M400.168 930.26L541.554 848.631L522.974 837.903L381.592 919.532L400.168 930.26Z" fill="#54493E"/>
<path d="M334.205 892.176L449.836 958.935L387.442 925.555L334.205 892.176Z" fill="#87623F"/>
<path d="M391.577 925.298L532.96 843.669L531.685 842.93L390.299 924.559L391.577 925.298Z" fill="#D1A986"/>
<path d="M442.228 991.819L417.818 977.724V949.709L442.228 963.803V991.819ZM419.43 976.799L440.616 989.032V964.729L419.43 952.496V976.799Z" fill="#87623F"/>
<path d="M432.715 982.847L427.331 979.74V965.633L432.715 968.739V982.847Z" fill="#87623F"/>
<path d="M438.006 974.479L422.04 965.262L430.021 960.241L438.006 974.479Z" fill="#87623F"/>
<path d="M258.804 652.379C258.76 653.37 258.558 654.5 258.199 655.77C257.857 657.032 257.441 658.275 256.949 659.5C256.474 660.717 255.971 661.825 255.439 662.825C254.907 663.825 254.446 664.55 254.056 665.001C253.932 665.143 253.686 665.365 253.32 665.667C252.97 665.978 252.55 666.329 252.062 666.72C251.59 667.12 251.076 667.54 250.518 667.979C249.96 668.417 249.429 668.827 248.925 669.207C248.437 669.58 247.994 669.898 247.596 670.162C247.196 670.444 246.911 670.623 246.739 670.699C246.602 670.76 246.536 670.737 246.541 670.631C246.545 670.543 246.646 670.35 246.844 670.054C247.025 669.765 247.258 669.427 247.545 669.04C247.848 668.645 248.169 668.233 248.508 667.805C248.846 667.377 249.166 666.983 249.468 666.624C249.771 666.246 250.029 665.923 250.243 665.655C250.474 665.379 250.607 665.216 250.643 665.165C250.768 665.005 250.982 664.737 251.284 664.36C251.587 663.982 251.925 663.563 252.299 663.102C252.672 662.641 253.055 662.167 253.447 661.681C253.856 661.17 254.222 660.704 254.543 660.283C254.864 659.863 255.132 659.51 255.347 659.223C255.562 658.919 255.671 658.741 255.673 658.688C255.707 657.927 255.533 657.302 255.151 656.812C254.769 656.323 254.29 655.955 253.712 655.709C253.152 655.455 252.552 655.322 251.913 655.311C251.276 655.282 250.726 655.353 250.264 655.524C250.248 655.513 250.242 655.464 250.246 655.376C250.252 655.234 250.298 654.953 250.384 654.534C250.471 654.096 250.577 653.607 250.702 653.065C250.844 652.499 250.997 651.911 251.158 651.301C251.338 650.666 251.515 650.084 251.69 649.556C251.865 649.027 252.036 648.578 252.204 648.208C252.372 647.839 252.516 647.628 252.636 647.574C252.756 647.521 252.993 647.485 253.347 647.466C253.718 647.44 254.137 647.462 254.605 647.532C255.091 647.576 255.582 647.696 256.077 647.892C256.59 648.08 257.057 648.359 257.478 648.727C257.899 649.095 258.231 649.58 258.473 650.184C258.732 650.78 258.843 651.511 258.804 652.379Z" fill="white"/>
<path d="M240.026 675.379C240.101 674.424 240.172 673.367 240.239 672.21C240.324 671.024 240.402 669.801 240.475 668.539C240.547 667.277 240.611 665.998 240.669 664.702C240.743 663.398 240.807 662.129 240.862 660.896C240.934 659.634 240.995 658.438 241.046 657.309C241.096 656.18 241.141 655.155 241.182 654.235C241.197 653.901 241.277 653.363 241.422 652.622C241.583 651.874 241.772 651.052 241.988 650.157C242.204 649.262 242.436 648.359 242.684 647.449C242.934 646.519 243.171 645.696 243.394 644.982C243.599 644.337 243.808 643.773 244.022 643.289C244.236 642.804 244.433 642.512 244.613 642.411C244.777 642.338 244.851 642.469 244.836 642.804C244.824 643.076 244.776 643.425 244.693 643.851C244.627 644.27 244.567 644.706 244.515 645.16C244.352 646.667 244.214 648.153 244.101 649.618C244.004 651.075 243.924 652.525 243.86 653.968C243.809 655.097 243.775 656.229 243.757 657.365C243.739 658.479 243.705 659.601 243.655 660.73C243.549 663.114 243.292 665.483 242.883 667.837C242.474 670.192 241.815 672.606 240.904 675.081C240.72 675.614 240.539 675.92 240.359 676C240.163 676.087 240.052 675.88 240.026 675.379Z" fill="white"/>
<path d="M235.139 654.26C234.501 655.052 233.758 655.771 232.91 656.417C232.062 657.063 231.181 657.687 230.268 658.291C229.355 658.895 228.441 659.506 227.527 660.125C226.63 660.735 225.815 661.402 225.08 662.124C224.153 663.031 223.434 663.973 222.923 664.95C222.411 665.928 222.016 666.902 221.739 667.874C221.462 668.846 221.269 669.794 221.161 670.719C221.054 671.63 220.941 672.472 220.823 673.246C220.778 673.492 220.725 673.932 220.664 674.568C220.619 675.196 220.562 675.922 220.492 676.745C220.421 677.582 220.357 678.46 220.299 679.376C220.241 680.307 220.177 681.192 220.106 682.029C220.035 682.881 219.968 683.632 219.906 684.282C219.861 684.925 219.815 685.383 219.769 685.658C219.745 685.839 219.709 686.067 219.664 686.342C219.635 686.609 219.59 686.877 219.528 687.145C219.483 687.405 219.414 687.641 219.321 687.852C219.245 688.056 219.156 688.18 219.053 688.226C218.934 688.279 218.828 688.212 218.736 688.027C218.661 687.834 218.596 687.609 218.54 687.35C218.502 687.084 218.472 686.822 218.45 686.563C218.427 686.319 218.417 686.16 218.421 686.088C218.399 685.815 218.385 685.382 218.378 684.792C218.388 684.193 218.392 683.534 218.391 682.813C218.406 682.085 218.423 681.327 218.441 680.541C218.46 679.755 218.475 679.034 218.487 678.378C218.516 677.729 218.532 677.184 218.535 676.745C218.555 676.297 218.566 676.052 218.568 676.009C218.616 674.912 218.726 673.753 218.898 672.531C219.086 671.302 219.359 670.049 219.717 668.773C220.092 667.489 220.567 666.202 221.143 664.914C221.719 663.611 222.419 662.345 223.243 661.116C224.085 659.865 225.066 658.672 226.187 657.538C227.325 656.396 228.635 655.333 230.117 654.349C229.914 654.411 229.745 654.443 229.611 654.446C229.495 654.427 229.441 654.331 229.448 654.158C229.453 654.042 229.494 653.883 229.57 653.679C229.646 653.462 229.704 653.302 229.742 653.2C229.799 653.047 229.919 652.782 230.103 652.403C230.288 652.01 230.5 651.569 230.739 651.081C230.978 650.593 231.235 650.09 231.509 649.572C231.782 649.054 232.037 648.594 232.272 648.193C232.363 648.039 232.443 647.926 232.513 647.852C232.6 647.771 232.772 647.674 233.028 647.56C233.591 647.31 234.183 647.16 234.804 647.11C235.426 647.046 235.993 647.084 236.505 647.224C237.034 647.356 237.459 647.585 237.779 647.909C238.116 648.226 238.273 648.644 238.25 649.164C238.244 649.294 238.105 649.596 237.834 650.07C237.579 650.537 237.28 651.045 236.938 651.593C236.596 652.141 236.246 652.678 235.888 653.205C235.548 653.71 235.298 654.061 235.139 654.26Z" fill="white"/>
<path d="M253.857 631.183L272.143 623.055C273.944 622.255 275.332 623.202 275.245 625.171C275.168 626.903 273.963 628.891 272.388 629.882L252.841 642.191C252.006 642.716 251.12 642.998 250.539 642.636C248.423 641.32 249.559 637.234 250.978 634.093C251.584 632.753 252.712 631.691 253.857 631.183Z" stroke="white" stroke-width="6"/>
<path d="M276.695 647.545L271.907 633.778C271.394 632.303 269.835 631.951 268.141 632.929L267.67 633.202C266.099 634.109 264.793 636.091 265.607 637.129C265.891 637.489 266.291 637.814 266.847 638.049C269.15 639.019 268.178 640.961 267.206 642.904L267.206 642.904C266.234 644.846 267.418 645.772 269.769 647.405C272.121 649.037 267.709 652.737 267.923 652.613C268.133 652.492 268.341 655.261 273.551 654.098C273.733 654.057 273.917 654.031 274.094 654.009C277.373 653.607 277.207 649.566 276.695 647.545Z" stroke="white" stroke-width="6"/>
<circle cx="2.81469" cy="2.81469" r="2.81469" transform="matrix(0.913812 -0.406138 -0.0444006 0.999014 260.287 616.61)" fill="white"/>
<rect width="0.469115" height="4.22203" rx="0.234557" transform="matrix(0.913812 -0.406138 -0.0444006 0.999014 256.599 633.409)" fill="white"/>
<rect width="0.938229" height="4.22203" rx="0.469115" transform="matrix(0.913812 -0.406138 -0.0444006 0.999014 253.17 634.934)" fill="white"/>
<rect width="0.938229" height="4.22203" rx="0.469115" transform="matrix(0.913812 -0.406138 -0.0444006 0.999014 254.027 634.553)" fill="white"/>
<rect width="0.469115" height="4.22203" rx="0.234557" transform="matrix(0.913812 -0.406138 -0.0444006 0.999014 252.741 635.124)" fill="white"/>
<rect width="0.469115" height="4.22203" rx="0.234557" transform="matrix(0.913812 -0.406138 -0.0444006 0.999014 255.313 633.981)" fill="white"/>
<path d="M1225.42 416.522C1225.32 417.598 1225.07 418.649 1224.65 419.674C1224.25 420.711 1223.78 421.639 1223.24 422.458C1222.72 423.289 1222.17 423.963 1221.6 424.479C1221.04 424.995 1220.55 425.283 1220.15 425.341C1220.02 425.357 1219.77 425.323 1219.4 425.239C1219.05 425.185 1218.62 425.095 1218.13 424.97C1217.65 424.875 1217.13 424.752 1216.57 424.601C1216 424.449 1215.47 424.295 1214.96 424.14C1214.47 423.995 1214.02 423.84 1213.62 423.676C1213.22 423.53 1212.94 423.401 1212.77 423.287C1212.63 423.197 1212.57 423.094 1212.58 422.978C1212.59 422.882 1212.69 422.781 1212.9 422.676C1213.09 422.558 1213.34 422.446 1213.63 422.34C1213.95 422.244 1214.28 422.151 1214.63 422.059C1214.98 421.967 1215.31 421.892 1215.62 421.835C1215.94 421.759 1216.2 421.693 1216.43 421.637C1216.66 421.592 1216.8 421.562 1216.84 421.546C1216.97 421.51 1217.19 421.454 1217.5 421.378C1217.82 421.302 1218.17 421.219 1218.55 421.131C1218.94 421.043 1219.33 420.95 1219.74 420.854C1220.16 420.75 1220.54 420.646 1220.87 420.543C1221.21 420.439 1221.49 420.35 1221.71 420.275C1221.93 420.18 1222.05 420.104 1222.05 420.047C1222.13 419.22 1221.99 418.306 1221.65 417.304C1221.3 416.302 1220.86 415.324 1220.31 414.37C1219.79 413.428 1219.21 412.578 1218.6 411.82C1217.98 411.044 1217.44 410.483 1216.99 410.138C1216.97 410.108 1216.97 410.045 1216.98 409.948C1216.99 409.795 1217.05 409.529 1217.16 409.152C1217.26 408.756 1217.39 408.322 1217.54 407.853C1217.71 407.375 1217.89 406.883 1218.08 406.379C1218.29 405.866 1218.49 405.411 1218.69 405.013C1218.88 404.616 1219.07 404.305 1219.26 404.081C1219.44 403.856 1219.59 403.783 1219.71 403.863C1219.83 403.942 1220.06 404.178 1220.4 404.57C1220.76 404.973 1221.17 405.487 1221.62 406.111C1222.08 406.728 1222.55 407.437 1223.02 408.239C1223.51 409.051 1223.94 409.912 1224.33 410.822C1224.72 411.731 1225.01 412.671 1225.22 413.64C1225.44 414.62 1225.5 415.581 1225.42 416.522Z" fill="white"/>
<path d="M1206.02 420.781C1206.14 419.781 1206.27 418.662 1206.4 417.424C1206.54 416.175 1206.68 414.875 1206.82 413.523C1206.96 412.172 1207.09 410.793 1207.21 409.386C1207.35 407.989 1207.48 406.621 1207.6 405.282C1207.74 403.931 1207.86 402.643 1207.97 401.417C1208.08 400.191 1208.18 399.079 1208.27 398.08C1208.3 397.717 1208.41 397.199 1208.59 396.525C1208.78 395.862 1209.01 395.148 1209.27 394.381C1209.52 393.615 1209.8 392.859 1210.09 392.114C1210.38 391.346 1210.65 390.687 1210.91 390.135C1211.14 389.641 1211.37 389.243 1211.6 388.942C1211.84 388.64 1212.04 388.537 1212.22 388.633C1212.38 388.741 1212.45 388.976 1212.42 389.34C1212.39 389.635 1212.33 389.976 1212.22 390.364C1212.14 390.763 1212.05 391.19 1211.98 391.645C1211.74 393.17 1211.53 394.699 1211.34 396.232C1211.17 397.777 1211.01 399.332 1210.87 400.899C1210.77 402.124 1210.67 403.372 1210.59 404.642C1210.52 405.89 1210.42 407.126 1210.31 408.352C1210.08 410.939 1209.71 413.334 1209.19 415.535C1208.67 417.736 1207.9 419.713 1206.89 421.466C1206.68 421.857 1206.49 421.993 1206.31 421.875C1206.11 421.745 1206.02 421.381 1206.02 420.781Z" fill="white"/>
<path d="M1202.42 391.058C1201.76 391.216 1201 391.168 1200.15 390.913C1199.29 390.658 1198.41 390.341 1197.49 389.963C1196.58 389.584 1195.66 389.214 1194.74 388.851C1193.84 388.5 1193.02 388.306 1192.27 388.271C1191.32 388.222 1190.58 388.455 1190.03 388.969C1189.48 389.483 1189.05 390.132 1188.73 390.914C1188.41 391.695 1188.17 392.549 1188.02 393.475C1187.86 394.386 1187.71 395.212 1187.55 395.955C1187.5 396.183 1187.42 396.622 1187.33 397.273C1187.25 397.935 1187.16 398.694 1187.05 399.549C1186.93 400.419 1186.82 401.342 1186.72 402.317C1186.61 403.308 1186.5 404.239 1186.39 405.109C1186.28 405.995 1186.17 406.772 1186.08 407.438C1186 408.116 1185.93 408.585 1185.87 408.844C1185.84 409.021 1185.79 409.239 1185.73 409.498C1185.69 409.769 1185.63 410.02 1185.56 410.253C1185.5 410.497 1185.42 410.684 1185.32 410.816C1185.23 410.959 1185.14 410.996 1185.04 410.929C1184.92 410.85 1184.82 410.651 1184.74 410.333C1184.68 410.026 1184.63 409.693 1184.59 409.335C1184.57 408.988 1184.55 408.654 1184.55 408.334C1184.54 408.029 1184.54 407.838 1184.54 407.76C1184.54 407.424 1184.55 406.916 1184.57 406.235C1184.61 405.566 1184.65 404.821 1184.69 404C1184.74 403.189 1184.8 402.348 1184.86 401.475C1184.92 400.603 1184.97 399.8 1185.02 399.068C1185.08 398.364 1185.13 397.763 1185.15 397.266C1185.2 396.78 1185.22 396.514 1185.22 396.467C1185.33 395.277 1185.5 394.087 1185.73 392.897C1185.98 391.718 1186.31 390.612 1186.72 389.577C1187.15 388.554 1187.68 387.646 1188.31 386.852C1188.94 386.042 1189.68 385.419 1190.54 384.982C1191.43 384.541 1192.44 384.329 1193.58 384.346C1194.75 384.374 1196.07 384.693 1197.56 385.302C1197.36 385.136 1197.19 384.976 1197.06 384.823C1196.95 384.666 1196.9 384.493 1196.92 384.305C1196.93 384.18 1196.98 384.046 1197.06 383.903C1197.15 383.744 1197.21 383.629 1197.26 383.558C1197.32 383.451 1197.45 383.289 1197.65 383.073C1197.85 382.841 1198.08 382.587 1198.33 382.311C1198.59 382.034 1198.87 381.762 1199.16 381.492C1199.45 381.223 1199.72 380.997 1199.97 380.814C1200.07 380.746 1200.15 380.71 1200.22 380.708C1200.31 380.718 1200.48 380.807 1200.74 380.976C1201.3 381.348 1201.88 381.868 1202.48 382.536C1203.08 383.188 1203.63 383.893 1204.12 384.649C1204.62 385.418 1205.02 386.173 1205.32 386.915C1205.62 387.669 1205.75 388.328 1205.7 388.892C1205.69 389.033 1205.54 389.214 1205.25 389.437C1204.98 389.67 1204.66 389.899 1204.3 390.124C1203.94 390.348 1203.58 390.551 1203.2 390.733C1202.85 390.91 1202.59 391.019 1202.42 391.058Z" fill="white"/>
<path d="M1221.62 386.544L1239.89 398.727C1241.68 399.917 1242.97 402.614 1242.78 404.751C1242.62 406.632 1241.34 407.487 1239.77 406.778L1220.09 397.931C1219.32 397.585 1218.52 396.928 1218.01 395.934C1215.9 391.837 1217.32 388.41 1218.91 386.49C1219.52 385.751 1220.58 385.849 1221.62 386.544Z" stroke="white" stroke-width="6"/>
<path d="M1242.99 431.89L1239.03 410.331C1238.65 408.239 1237.28 406.201 1235.73 405.409L1234.81 404.94C1233.37 404.205 1232.11 404.858 1232.72 406.819C1232.98 407.629 1233.37 408.565 1233.97 409.602C1236.14 413.392 1235.1 414.467 1234.06 415.542L1234.06 415.542C1233.01 416.618 1234.11 419.052 1236.3 423.652C1238.48 428.252 1234.02 427.313 1234.23 427.422C1234.44 427.53 1234.49 430.932 1239.62 435.696C1239.78 435.848 1239.95 436.019 1240.11 436.187C1243.32 439.596 1243.38 434.792 1242.99 431.89Z" stroke="white" stroke-width="6"/>
<circle cx="3.06452" cy="3.06452" r="3.06452" transform="matrix(0.83205 0.5547 -0.0885398 0.996073 1228.77 377.568)" fill="white"/>
<rect width="0.510754" height="4.59679" rx="0.255377" transform="matrix(0.83205 0.5547 -0.0885398 0.996073 1224.3 392.373)" fill="white"/>
<rect width="1.02151" height="4.59679" rx="0.510754" transform="matrix(0.83205 0.5547 -0.0885398 0.996073 1220.9 390.106)" fill="white"/>
<rect width="1.02151" height="4.59679" rx="0.510754" transform="matrix(0.83205 0.5547 -0.0885398 0.996073 1221.75 390.674)" fill="white"/>
<rect width="0.510754" height="4.59679" rx="0.255377" transform="matrix(0.83205 0.5547 -0.0885398 0.996073 1220.48 389.823)" fill="white"/>
<rect width="0.510754" height="4.59679" rx="0.255377" transform="matrix(0.83205 0.5547 -0.0885398 0.996073 1223.03 391.523)" fill="white"/>
<defs>
<linearGradient id="paint0_linear_939_2472" x1="1160.14" y1="475.067" x2="1128.94" y2="514.561" gradientUnits="userSpaceOnUse">
<stop offset="0.1224" stop-color="#FCA4B5"/>
<stop offset="0.9896" stop-color="#FFADB7"/>
</linearGradient>
<linearGradient id="paint1_linear_939_2472" x1="1228.63" y1="331.135" x2="1205.51" y2="360.406" gradientUnits="userSpaceOnUse">
<stop offset="0.1224" stop-color="#FCA4B5"/>
<stop offset="0.9896" stop-color="#FFADB7"/>
</linearGradient>
<linearGradient id="paint2_linear_939_2472" x1="1234.13" y1="309.518" x2="1245.03" y2="311.36" gradientUnits="userSpaceOnUse">
<stop offset="0.1224" stop-color="#FEB9B8"/>
<stop offset="1" stop-color="#FFDEDE"/>
</linearGradient>
<linearGradient id="paint3_linear_939_2472" x1="298.408" y1="663.48" x2="357.488" y2="738.27" gradientUnits="userSpaceOnUse">
<stop offset="0.1224" stop-color="#FCA4B5"/>
<stop offset="0.9896" stop-color="#FFADB7"/>
</linearGradient>
<linearGradient id="paint4_linear_939_2472" x1="237.598" y1="581.134" x2="256.3" y2="604.808" gradientUnits="userSpaceOnUse">
<stop offset="0.1224" stop-color="#FCA4B5"/>
<stop offset="0.9896" stop-color="#FFADB7"/>
</linearGradient>
<linearGradient id="paint5_linear_939_2472" x1="232.029" y1="556.548" x2="221.858" y2="558.267" gradientUnits="userSpaceOnUse">
<stop offset="0.1224" stop-color="#FEB9B8"/>
<stop offset="1" stop-color="#FFDEDE"/>
</linearGradient>
<linearGradient id="paint6_linear_939_2472" x1="303.01" y1="703.318" x2="329.403" y2="736.729" gradientUnits="userSpaceOnUse">
<stop offset="0.1224" stop-color="#FCA4B5"/>
<stop offset="0.9896" stop-color="#FFADB7"/>
</linearGradient>
</defs>
</svg>
