<svg width="140" height="116" viewBox="0 0 140 116" fill="none" xmlns="http://www.w3.org/2000/svg">
<path d="M93.2532 76.4258C93.2532 78.5404 92.893 80.806 92.1727 83.2227C91.4923 85.6393 90.6319 87.9427 89.5914 90.1328C88.5909 92.3229 87.5104 94.2487 86.3499 95.9102C85.1893 97.5716 84.1688 98.7044 83.2884 99.3086C83.0082 99.4974 82.448 99.7428 81.6076 100.045C80.8072 100.385 79.8467 100.743 78.7262 101.121C77.6456 101.536 76.4651 101.952 75.1844 102.367C73.9038 102.783 72.6832 103.16 71.5227 103.5C70.4021 103.84 69.3816 104.104 68.4612 104.293C67.5407 104.52 66.8804 104.633 66.4802 104.633C66.1601 104.633 66 104.52 66 104.293C66 104.104 66.2201 103.783 66.6603 103.33C67.0605 102.877 67.5808 102.367 68.2211 101.801C68.9014 101.234 69.6218 100.649 70.3821 100.045C71.1425 99.4408 71.8628 98.8932 72.5432 98.4023C73.2235 97.8737 73.8038 97.4206 74.284 97.043C74.8043 96.6654 75.1044 96.4388 75.1844 96.3633C75.4646 96.1367 75.9448 95.7591 76.6251 95.2305C77.3055 94.7018 78.0658 94.1165 78.9063 93.4746C79.7467 92.8327 80.6071 92.1719 81.4875 91.4922C82.4079 90.7747 83.2283 90.1139 83.9487 89.5098C84.669 88.9056 85.2693 88.3958 85.7496 87.9805C86.2298 87.5273 86.4699 87.2441 86.4699 87.1309C86.4699 85.5072 85.9897 83.9779 85.0292 82.543C84.0688 81.1081 82.8882 79.8431 81.4875 78.748C80.1268 77.653 78.6861 76.7845 77.1654 76.1426C75.6447 75.4629 74.344 75.0853 73.2635 75.0098C73.2235 74.972 73.2035 74.8587 73.2035 74.6699C73.2035 74.3678 73.2835 73.8014 73.4436 72.9707C73.6037 72.1022 73.8038 71.1393 74.0439 70.082C74.324 68.987 74.6242 67.8542 74.9443 66.6836C75.3045 65.4753 75.6647 64.3802 76.0249 63.3984C76.385 62.4167 76.7452 61.6048 77.1054 60.9629C77.4656 60.321 77.7857 60 78.0658 60C78.346 60 78.9063 60.151 79.7467 60.4531C80.6271 60.7552 81.6276 61.2083 82.7481 61.8125C83.9087 62.3789 85.0892 63.1152 86.2898 64.0215C87.5304 64.9277 88.671 65.985 89.7115 67.1934C90.752 68.4017 91.5924 69.7799 92.2327 71.3281C92.913 72.8763 93.2532 74.5755 93.2532 76.4258Z" fill="white"/>
<path d="M51 108.327C51.0762 106.319 51.1333 104.088 51.1714 101.634C51.2476 99.1358 51.3048 96.548 51.3429 93.871C51.381 91.194 51.4 88.4724 51.4 85.7061C51.4381 82.9399 51.4571 80.2405 51.4571 77.6081C51.4952 74.9311 51.5143 72.388 51.5143 69.9787C51.5143 67.5693 51.5143 65.3831 51.5143 63.42C51.5143 62.7061 51.6476 61.613 51.9143 60.1406C52.219 58.6683 52.581 57.0621 53 55.322C53.419 53.582 53.8762 51.8419 54.3714 50.1018C54.8667 48.3172 55.3429 46.7556 55.8 45.4171C56.219 44.2124 56.6571 43.1862 57.1143 42.3385C57.5714 41.4908 58.0095 41.0446 58.4286 41C58.8095 41 59 41.3569 59 42.0708C59 42.6508 58.9238 43.3647 58.7714 44.2124C58.6571 45.0601 58.5619 45.9525 58.4857 46.8894C58.2571 50.0126 58.0857 53.1135 57.9714 56.192C57.8952 59.2706 57.8571 62.3492 57.8571 65.4277C57.8571 67.837 57.8952 70.2687 57.9714 72.7226C58.0476 75.1319 58.0857 77.5412 58.0857 79.9505C58.0857 85.0369 57.7238 89.9447 57 94.6741C56.2762 99.4035 54.9619 104.021 53.0571 108.528C52.6762 109.509 52.2762 110 51.8571 110C51.4 110 51.1143 109.442 51 108.327Z" fill="white"/>
<path d="M37.1343 57.6256C35.7015 58.734 34.01 59.5807 32.0597 60.1656C30.1095 60.7506 28.0796 61.2586 25.9701 61.6897C23.8607 62.1207 21.7512 62.5671 19.6418 63.0289C17.5721 63.4908 15.7015 64.1527 14.0299 65.0148C11.9204 66.0924 10.3085 67.447 9.19403 69.0788C8.0796 70.7106 7.24378 72.4501 6.68657 74.2974C6.12935 76.1447 5.77114 78.0228 5.61194 79.9317C5.45274 81.8097 5.27363 83.5339 5.07463 85.1041C4.99503 85.5967 4.91542 86.5049 4.83582 87.8288C4.79602 89.1527 4.73632 90.6767 4.65672 92.4009C4.57711 94.1558 4.51741 96.0031 4.47761 97.9427C4.43781 99.9132 4.37811 101.776 4.29851 103.531C4.21891 105.317 4.1393 106.887 4.0597 108.241C4.0199 109.596 3.9602 110.55 3.8806 111.105C3.8408 111.474 3.78109 111.936 3.70149 112.49C3.66169 113.044 3.58209 113.583 3.46269 114.107C3.38308 114.63 3.24378 115.076 3.04478 115.446C2.88557 115.815 2.68657 116 2.44776 116C2.16915 116 1.91045 115.754 1.67164 115.261C1.47264 114.768 1.29353 114.214 1.13433 113.599C1.01493 112.983 0.915423 112.382 0.835821 111.797C0.756219 111.243 0.716418 110.889 0.716418 110.735C0.636816 110.119 0.557214 109.165 0.477612 107.872C0.437811 106.579 0.378109 105.147 0.298507 103.577C0.258706 102.007 0.218905 100.375 0.179104 98.6817C0.139303 96.9883 0.0995025 95.4335 0.0597015 94.0172C0.0597015 92.6318 0.039801 91.4618 0 90.5074C0 89.553 0 89.0296 0 88.9372C0 86.5973 0.139304 84.1804 0.41791 81.6866C0.736318 79.1927 1.25373 76.7297 1.97015 74.2974C2.72637 71.8651 3.72139 69.5252 4.95522 67.2777C6.18905 64.9994 7.72139 62.9212 9.55224 61.0431C11.4229 59.1342 13.6318 57.4871 16.1791 56.1016C18.7662 54.7161 21.7711 53.6693 25.194 52.9612C24.7164 52.8996 24.3184 52.8073 24 52.6841C23.7214 52.5302 23.5821 52.2685 23.5821 51.899C23.5821 51.6527 23.6617 51.3448 23.8209 50.9754C23.9801 50.5751 24.0995 50.2826 24.1791 50.0979C24.2985 49.8208 24.5572 49.359 24.9552 48.7124C25.3532 48.0351 25.8109 47.2808 26.3284 46.4495C26.8458 45.6182 27.403 44.7716 28 43.9095C28.597 43.0474 29.1542 42.2931 29.6716 41.6466C29.8706 41.4002 30.0498 41.2309 30.209 41.1385C30.408 41.0462 30.806 41 31.403 41C32.7164 41 34.1095 41.2463 35.5821 41.7389C37.0547 42.2007 38.408 42.8319 39.6418 43.6324C40.9154 44.4329 41.9503 45.3411 42.7463 46.3571C43.5821 47.3732 44 48.4353 44 49.5437C44 49.8208 43.7015 50.3442 43.1045 51.1139C42.5473 51.8836 41.8905 52.6995 41.1343 53.5616C40.3781 54.4236 39.602 55.2549 38.806 56.0554C38.0498 56.8251 37.4925 57.3485 37.1343 57.6256Z" fill="white"/>
<path d="M76.988 25.5H125.5C127.709 25.5 129.5 27.2909 129.5 29.5V36.1369C129.5 38.0811 128.102 39.7437 126.187 40.0775L76.4008 48.7558C75.4947 48.9138 74.5424 48.7712 73.7928 48.2383C66.2725 42.892 70.106 32.8704 73.8588 27.1251C74.5436 26.0767 75.7357 25.5 76.988 25.5Z" stroke="white" stroke-width="6"/>
<path d="M135.319 83.2095L121.22 45.2507C120.574 43.5106 118.815 42.4438 116.973 42.6743L109.086 43.6617C107.378 43.8756 105.982 45.2121 106.447 46.8698C106.955 48.6786 108.206 50.934 110.878 53.0115C116.461 57.3517 114.353 60.639 112.245 63.9263L112.245 63.9263C110.137 67.2136 113.052 70.376 118.821 76.2046C124.589 82.0332 114.481 85.818 114.977 85.7559C115.469 85.6943 116.268 92.0401 128.872 94.5007C129.073 94.5401 129.286 94.5981 129.481 94.6619C137.596 97.3121 136.77 88.1723 135.319 83.2095Z" stroke="white" stroke-width="6"/>
<circle cx="99" cy="6" r="6" fill="white"/>
<rect x="86" y="33" width="1" height="9" rx="0.5" fill="white"/>
<rect x="78" y="33" width="2" height="9" rx="1" fill="white"/>
<rect x="80" y="33" width="2" height="9" rx="1" fill="white"/>
<rect x="77" y="33" width="1" height="9" rx="0.5" fill="white"/>
<rect x="83" y="33" width="1" height="9" rx="0.5" fill="white"/>
</svg>
